<mxfile host="app.diagrams.net" agent="Mozilla/5.0 (Windows NT 10.0; Win64; x64) AppleWebKit/537.36 (KHTML, like Gecko) Chrome/132.0.0.0 Safari/537.36" version="26.0.11">
  <diagram name="Page-1" id="qWBwkc9d-IospQ_HX7cf">
    <mxGraphModel dx="1194" dy="1727" grid="1" gridSize="10" guides="1" tooltips="1" connect="1" arrows="1" fold="1" page="1" pageScale="1" pageWidth="827" pageHeight="1169" math="0" shadow="0">
      <root>
        <mxCell id="0" />
        <mxCell id="1" parent="0" />
        <UserObject label="" mermaidData="{&#xa;  &quot;data&quot;: &quot;stateDiagram-v2\n    [*] --&gt; Browsing\n    Browsing --&gt; AddingToCart : Selects item\n    AddingToCart --&gt; CartReview : Item added\n    CartReview --&gt; Checkout : Proceeds to checkout\n    Checkout --&gt; PaymentProcessing : Enters payment details\n    PaymentProcessing --&gt; PaymentSuccessful : Payment approved\n    PaymentProcessing --&gt; PaymentFailed : Payment declined\n    PaymentSuccessful --&gt; OrderComplete : Confirms order\n    PaymentFailed --&gt; CartReview : Chooses to retry\n    OrderComplete --&gt; [*]\n&quot;&#xa;}" id="GgeJQq2CWYBb5YZVqU0a-1">
          <mxCell style="shape=image;noLabel=1;verticalAlign=top;imageAspect=1;image=data:image/svg+xml,PHN2ZyBhcmlhLXJvbGVkZXNjcmlwdGlvbj0ic3RhdGVEaWFncmFtIiByb2xlPSJncmFwaGljcy1kb2N1bWVudCBkb2N1bWVudCIgdmlld0JveD0iMCAwIDQ0NS43NTU4NTkzNzUgODU5IiBzdHlsZT0ibWF4LXdpZHRoOiA0NDUuNzU1ODU5Mzc1cHg7IiBjbGFzcz0ic3RhdGVkaWFncmFtIiB4bWxucz0iaHR0cDovL3d3dy53My5vcmcvMjAwMC9zdmciIHdpZHRoPSIxMDAlIiBpZD0iZ2VNZXJtYWlkT3V0cHV0LTE3Mzg5MDQ5MzIzNjkiPjxzdHlsZT4jZ2VNZXJtYWlkT3V0cHV0LTE3Mzg5MDQ5MzIzNjl7Zm9udC1mYW1pbHk6InRyZWJ1Y2hldCBtcyIsdmVyZGFuYSxhcmlhbCxzYW5zLXNlcmlmO2ZvbnQtc2l6ZToxNnB4O2ZpbGw6IzAwMDAwMDt9I2dlTWVybWFpZE91dHB1dC0xNzM4OTA0OTMyMzY5IC5lcnJvci1pY29ue2ZpbGw6IzU1MjIyMjt9I2dlTWVybWFpZE91dHB1dC0xNzM4OTA0OTMyMzY5IC5lcnJvci10ZXh0e2ZpbGw6IzU1MjIyMjtzdHJva2U6IzU1MjIyMjt9I2dlTWVybWFpZE91dHB1dC0xNzM4OTA0OTMyMzY5IC5lZGdlLXRoaWNrbmVzcy1ub3JtYWx7c3Ryb2tlLXdpZHRoOjFweDt9I2dlTWVybWFpZE91dHB1dC0xNzM4OTA0OTMyMzY5IC5lZGdlLXRoaWNrbmVzcy10aGlja3tzdHJva2Utd2lkdGg6My41cHg7fSNnZU1lcm1haWRPdXRwdXQtMTczODkwNDkzMjM2OSAuZWRnZS1wYXR0ZXJuLXNvbGlke3N0cm9rZS1kYXNoYXJyYXk6MDt9I2dlTWVybWFpZE91dHB1dC0xNzM4OTA0OTMyMzY5IC5lZGdlLXRoaWNrbmVzcy1pbnZpc2libGV7c3Ryb2tlLXdpZHRoOjA7ZmlsbDpub25lO30jZ2VNZXJtYWlkT3V0cHV0LTE3Mzg5MDQ5MzIzNjkgLmVkZ2UtcGF0dGVybi1kYXNoZWR7c3Ryb2tlLWRhc2hhcnJheTozO30jZ2VNZXJtYWlkT3V0cHV0LTE3Mzg5MDQ5MzIzNjkgLmVkZ2UtcGF0dGVybi1kb3R0ZWR7c3Ryb2tlLWRhc2hhcnJheToyO30jZ2VNZXJtYWlkT3V0cHV0LTE3Mzg5MDQ5MzIzNjkgLm1hcmtlcntmaWxsOiM2NjY7c3Ryb2tlOiM2NjY7fSNnZU1lcm1haWRPdXRwdXQtMTczODkwNDkzMjM2OSAubWFya2VyLmNyb3Nze3N0cm9rZTojNjY2O30jZ2VNZXJtYWlkT3V0cHV0LTE3Mzg5MDQ5MzIzNjkgc3Zne2ZvbnQtZmFtaWx5OiJ0cmVidWNoZXQgbXMiLHZlcmRhbmEsYXJpYWwsc2Fucy1zZXJpZjtmb250LXNpemU6MTZweDt9I2dlTWVybWFpZE91dHB1dC0xNzM4OTA0OTMyMzY5IHB7bWFyZ2luOjA7fSNnZU1lcm1haWRPdXRwdXQtMTczODkwNDkzMjM2OSBkZWZzICNzdGF0ZWRpYWdyYW0tYmFyYkVuZHtmaWxsOiMwMDA7c3Ryb2tlOiMwMDA7fSNnZU1lcm1haWRPdXRwdXQtMTczODkwNDkzMjM2OSBnLnN0YXRlR3JvdXAgdGV4dHtmaWxsOiM5OTk7c3Ryb2tlOm5vbmU7Zm9udC1zaXplOjEwcHg7fSNnZU1lcm1haWRPdXRwdXQtMTczODkwNDkzMjM2OSBnLnN0YXRlR3JvdXAgdGV4dHtmaWxsOiMwMDAwMDA7c3Ryb2tlOm5vbmU7Zm9udC1zaXplOjEwcHg7fSNnZU1lcm1haWRPdXRwdXQtMTczODkwNDkzMjM2OSBnLnN0YXRlR3JvdXAgLnN0YXRlLXRpdGxle2ZvbnQtd2VpZ2h0OmJvbGRlcjtmaWxsOiMxMTExMTE7fSNnZU1lcm1haWRPdXRwdXQtMTczODkwNDkzMjM2OSBnLnN0YXRlR3JvdXAgcmVjdHtmaWxsOiNlZWU7c3Ryb2tlOiM5OTk7fSNnZU1lcm1haWRPdXRwdXQtMTczODkwNDkzMjM2OSBnLnN0YXRlR3JvdXAgbGluZXtzdHJva2U6IzY2NjtzdHJva2Utd2lkdGg6MTt9I2dlTWVybWFpZE91dHB1dC0xNzM4OTA0OTMyMzY5IC50cmFuc2l0aW9ue3N0cm9rZTojMDAwO3N0cm9rZS13aWR0aDoxO2ZpbGw6bm9uZTt9I2dlTWVybWFpZE91dHB1dC0xNzM4OTA0OTMyMzY5IC5zdGF0ZUdyb3VwIC5jb21wb3NpdHtmaWxsOiNmZmZmZmY7Ym9yZGVyLWJvdHRvbToxcHg7fSNnZU1lcm1haWRPdXRwdXQtMTczODkwNDkzMjM2OSAuc3RhdGVHcm91cCAuYWx0LWNvbXBvc2l0e2ZpbGw6I2UwZTBlMDtib3JkZXItYm90dG9tOjFweDt9I2dlTWVybWFpZE91dHB1dC0xNzM4OTA0OTMyMzY5IC5zdGF0ZS1ub3Rle3N0cm9rZTojOTk5O2ZpbGw6IzY2Njt9I2dlTWVybWFpZE91dHB1dC0xNzM4OTA0OTMyMzY5IC5zdGF0ZS1ub3RlIHRleHR7ZmlsbDojZmZmO3N0cm9rZTpub25lO2ZvbnQtc2l6ZToxMHB4O30jZ2VNZXJtYWlkT3V0cHV0LTE3Mzg5MDQ5MzIzNjkgLnN0YXRlTGFiZWwgLmJveHtzdHJva2U6bm9uZTtzdHJva2Utd2lkdGg6MDtmaWxsOiNlZWU7b3BhY2l0eTowLjU7fSNnZU1lcm1haWRPdXRwdXQtMTczODkwNDkzMjM2OSAuZWRnZUxhYmVsIC5sYWJlbCByZWN0e2ZpbGw6I2VlZTtvcGFjaXR5OjAuNTt9I2dlTWVybWFpZE91dHB1dC0xNzM4OTA0OTMyMzY5IC5lZGdlTGFiZWx7YmFja2dyb3VuZC1jb2xvcjp3aGl0ZTt0ZXh0LWFsaWduOmNlbnRlcjt9I2dlTWVybWFpZE91dHB1dC0xNzM4OTA0OTMyMzY5IC5lZGdlTGFiZWwgcHtiYWNrZ3JvdW5kLWNvbG9yOndoaXRlO30jZ2VNZXJtYWlkT3V0cHV0LTE3Mzg5MDQ5MzIzNjkgLmVkZ2VMYWJlbCByZWN0e29wYWNpdHk6MC41O2JhY2tncm91bmQtY29sb3I6d2hpdGU7ZmlsbDp3aGl0ZTt9I2dlTWVybWFpZE91dHB1dC0xNzM4OTA0OTMyMzY5IC5lZGdlTGFiZWwgLmxhYmVsIHRleHR7ZmlsbDojMDAwMDAwO30jZ2VNZXJtYWlkT3V0cHV0LTE3Mzg5MDQ5MzIzNjkgLmxhYmVsIGRpdiAuZWRnZUxhYmVse2NvbG9yOiMwMDAwMDA7fSNnZU1lcm1haWRPdXRwdXQtMTczODkwNDkzMjM2OSAuc3RhdGVMYWJlbCB0ZXh0e2ZpbGw6IzExMTExMTtmb250LXNpemU6MTBweDtmb250LXdlaWdodDpib2xkO30jZ2VNZXJtYWlkT3V0cHV0LTE3Mzg5MDQ5MzIzNjkgLm5vZGUgY2lyY2xlLnN0YXRlLXN0YXJ0e2ZpbGw6IzIyMjtzdHJva2U6IzIyMjt9I2dlTWVybWFpZE91dHB1dC0xNzM4OTA0OTMyMzY5IC5ub2RlIC5mb3JrLWpvaW57ZmlsbDojMjIyO3N0cm9rZTojMjIyO30jZ2VNZXJtYWlkT3V0cHV0LTE3Mzg5MDQ5MzIzNjkgLm5vZGUgY2lyY2xlLnN0YXRlLWVuZHtmaWxsOmhzbCgwLCAwJSwgODMuMzMzMzMzMzMzMyUpO3N0cm9rZTojZmZmZmZmO3N0cm9rZS13aWR0aDoxLjU7fSNnZU1lcm1haWRPdXRwdXQtMTczODkwNDkzMjM2OSAuZW5kLXN0YXRlLWlubmVye2ZpbGw6I2ZmZmZmZjtzdHJva2Utd2lkdGg6MS41O30jZ2VNZXJtYWlkT3V0cHV0LTE3Mzg5MDQ5MzIzNjkgLm5vZGUgcmVjdHtmaWxsOiNlZWU7c3Ryb2tlOiMwMDA7c3Ryb2tlLXdpZHRoOjFweDt9I2dlTWVybWFpZE91dHB1dC0xNzM4OTA0OTMyMzY5IC5ub2RlIHBvbHlnb257ZmlsbDojZWVlO3N0cm9rZTojMDAwO3N0cm9rZS13aWR0aDoxcHg7fSNnZU1lcm1haWRPdXRwdXQtMTczODkwNDkzMjM2OSAjc3RhdGVkaWFncmFtLWJhcmJFbmR7ZmlsbDojNjY2O30jZ2VNZXJtYWlkT3V0cHV0LTE3Mzg5MDQ5MzIzNjkgLnN0YXRlZGlhZ3JhbS1jbHVzdGVyIHJlY3R7ZmlsbDojZWVlO3N0cm9rZTojMDAwO3N0cm9rZS13aWR0aDoxcHg7fSNnZU1lcm1haWRPdXRwdXQtMTczODkwNDkzMjM2OSAuY2x1c3Rlci1sYWJlbCwjZ2VNZXJtYWlkT3V0cHV0LTE3Mzg5MDQ5MzIzNjkgLm5vZGVMYWJlbHtjb2xvcjojMTExMTExO30jZ2VNZXJtYWlkT3V0cHV0LTE3Mzg5MDQ5MzIzNjkgLnN0YXRlZGlhZ3JhbS1jbHVzdGVyIHJlY3Qub3V0ZXJ7cng6NXB4O3J5OjVweDt9I2dlTWVybWFpZE91dHB1dC0xNzM4OTA0OTMyMzY5IC5zdGF0ZWRpYWdyYW0tc3RhdGUgLmRpdmlkZXJ7c3Ryb2tlOiMwMDA7fSNnZU1lcm1haWRPdXRwdXQtMTczODkwNDkzMjM2OSAuc3RhdGVkaWFncmFtLXN0YXRlIC50aXRsZS1zdGF0ZXtyeDo1cHg7cnk6NXB4O30jZ2VNZXJtYWlkT3V0cHV0LTE3Mzg5MDQ5MzIzNjkgLnN0YXRlZGlhZ3JhbS1jbHVzdGVyLnN0YXRlZGlhZ3JhbS1jbHVzdGVyIC5pbm5lcntmaWxsOiNmZmZmZmY7fSNnZU1lcm1haWRPdXRwdXQtMTczODkwNDkzMjM2OSAuc3RhdGVkaWFncmFtLWNsdXN0ZXIuc3RhdGVkaWFncmFtLWNsdXN0ZXItYWx0IC5pbm5lcntmaWxsOiNmNGY0ZjQ7fSNnZU1lcm1haWRPdXRwdXQtMTczODkwNDkzMjM2OSAuc3RhdGVkaWFncmFtLWNsdXN0ZXIgLmlubmVye3J4OjA7cnk6MDt9I2dlTWVybWFpZE91dHB1dC0xNzM4OTA0OTMyMzY5IC5zdGF0ZWRpYWdyYW0tc3RhdGUgcmVjdC5iYXNpY3tyeDo1cHg7cnk6NXB4O30jZ2VNZXJtYWlkT3V0cHV0LTE3Mzg5MDQ5MzIzNjkgLnN0YXRlZGlhZ3JhbS1zdGF0ZSByZWN0LmRpdmlkZXJ7c3Ryb2tlLWRhc2hhcnJheToxMCwxMDtmaWxsOiNmNGY0ZjQ7fSNnZU1lcm1haWRPdXRwdXQtMTczODkwNDkzMjM2OSAubm90ZS1lZGdle3N0cm9rZS1kYXNoYXJyYXk6NTt9I2dlTWVybWFpZE91dHB1dC0xNzM4OTA0OTMyMzY5IC5zdGF0ZWRpYWdyYW0tbm90ZSByZWN0e2ZpbGw6IzY2NjtzdHJva2U6Izk5OTtzdHJva2Utd2lkdGg6MXB4O3J4OjA7cnk6MDt9I2dlTWVybWFpZE91dHB1dC0xNzM4OTA0OTMyMzY5IC5zdGF0ZWRpYWdyYW0tbm90ZSByZWN0e2ZpbGw6IzY2NjtzdHJva2U6Izk5OTtzdHJva2Utd2lkdGg6MXB4O3J4OjA7cnk6MDt9I2dlTWVybWFpZE91dHB1dC0xNzM4OTA0OTMyMzY5IC5zdGF0ZWRpYWdyYW0tbm90ZSB0ZXh0e2ZpbGw6I2ZmZjt9I2dlTWVybWFpZE91dHB1dC0xNzM4OTA0OTMyMzY5IC5zdGF0ZWRpYWdyYW0tbm90ZSAubm9kZUxhYmVse2NvbG9yOiNmZmY7fSNnZU1lcm1haWRPdXRwdXQtMTczODkwNDkzMjM2OSAuc3RhdGVkaWFncmFtIC5lZGdlTGFiZWx7Y29sb3I6cmVkO30jZ2VNZXJtYWlkT3V0cHV0LTE3Mzg5MDQ5MzIzNjkgI2RlcGVuZGVuY3lTdGFydCwjZ2VNZXJtYWlkT3V0cHV0LTE3Mzg5MDQ5MzIzNjkgI2RlcGVuZGVuY3lFbmR7ZmlsbDojNjY2O3N0cm9rZTojNjY2O3N0cm9rZS13aWR0aDoxO30jZ2VNZXJtYWlkT3V0cHV0LTE3Mzg5MDQ5MzIzNjkgLnN0YXRlZGlhZ3JhbVRpdGxlVGV4dHt0ZXh0LWFuY2hvcjptaWRkbGU7Zm9udC1zaXplOjE4cHg7ZmlsbDojMDAwMDAwO30jZ2VNZXJtYWlkT3V0cHV0LTE3Mzg5MDQ5MzIzNjkgOnJvb3R7LS1tZXJtYWlkLWZvbnQtZmFtaWx5OiJ0cmVidWNoZXQgbXMiLHZlcmRhbmEsYXJpYWwsc2Fucy1zZXJpZjt9PC9zdHlsZT48Zz48ZGVmcz48bWFya2VyIG9yaWVudD0iYXV0byIgbWFya2VyVW5pdHM9InVzZXJTcGFjZU9uVXNlIiBtYXJrZXJIZWlnaHQ9IjE0IiBtYXJrZXJXaWR0aD0iMjAiIHJlZlk9IjciIHJlZlg9IjE5IiBpZD0iZ2VNZXJtYWlkT3V0cHV0LTE3Mzg5MDQ5MzIzNjlfc3RhdGVEaWFncmFtLWJhcmJFbmQiPjxwYXRoIGQ9Ik0gMTksNyBMOSwxMyBMMTQsNyBMOSwxIFoiPjwvcGF0aD48L21hcmtlcj48L2RlZnM+PGcgY2xhc3M9InJvb3QiPjxnIGNsYXNzPSJjbHVzdGVycyI+PC9nPjxnIGNsYXNzPSJlZGdlUGF0aHMiPjxwYXRoIG1hcmtlci1lbmQ9InVybCgjZ2VNZXJtYWlkT3V0cHV0LTE3Mzg5MDQ5MzIzNjlfc3RhdGVEaWFncmFtLWJhcmJFbmQpIiBzdHlsZT0iO2ZpbGw6bm9uZSIgY2xhc3M9ImVkZ2UtdGhpY2tuZXNzLW5vcm1hbCBlZGdlLXBhdHRlcm4tc29saWQgdHJhbnNpdGlvbiIgaWQ9ImVkZ2UwIiBkPSJNMjQzLjE4NiwyMkwyNDMuMTg2LDI2LjE2N0MyNDMuMTg2LDMwLjMzMywyNDMuMTg2LDM4LjY2NywyNDMuMTg2LDQ3QzI0My4xODYsNTUuMzMzLDI0My4xODYsNjMuNjY3LDI0My4xODYsNjcuODMzTDI0My4xODYsNzIiPjwvcGF0aD48cGF0aCBtYXJrZXItZW5kPSJ1cmwoI2dlTWVybWFpZE91dHB1dC0xNzM4OTA0OTMyMzY5X3N0YXRlRGlhZ3JhbS1iYXJiRW5kKSIgc3R5bGU9IjtmaWxsOm5vbmUiIGNsYXNzPSJlZGdlLXRoaWNrbmVzcy1ub3JtYWwgZWRnZS1wYXR0ZXJuLXNvbGlkIHRyYW5zaXRpb24iIGlkPSJlZGdlMSIgZD0iTTI0My4xODYsMTEyTDI0My4xODYsMTE4LjA0MkMyNDMuMTg2LDEyNC4wODMsMjQzLjE4NiwxMzYuMTY3LDI0My4xODYsMTQ4LjI1QzI0My4xODYsMTYwLjMzMywyNDMuMTg2LDE3Mi40MTcsMjQzLjE4NiwxNzguNDU4TDI0My4xODYsMTg0LjUiPjwvcGF0aD48cGF0aCBtYXJrZXItZW5kPSJ1cmwoI2dlTWVybWFpZE91dHB1dC0xNzM4OTA0OTMyMzY5X3N0YXRlRGlhZ3JhbS1iYXJiRW5kKSIgc3R5bGU9IjtmaWxsOm5vbmUiIGNsYXNzPSJlZGdlLXRoaWNrbmVzcy1ub3JtYWwgZWRnZS1wYXR0ZXJuLXNvbGlkIHRyYW5zaXRpb24iIGlkPSJlZGdlMiIgZD0iTTI0My4xODYsMjI0LjVMMjQzLjE4NiwyMzAuNTQyQzI0My4xODYsMjM2LjU4MywyNDMuMTg2LDI0OC42NjcsMjQzLjE4NiwyNjAuNzVDMjQzLjE4NiwyNzIuODMzLDI0My4xODYsMjg0LjkxNywyNDMuMTg2LDI5MC45NThMMjQzLjE4NiwyOTciPjwvcGF0aD48cGF0aCBtYXJrZXItZW5kPSJ1cmwoI2dlTWVybWFpZE91dHB1dC0xNzM4OTA0OTMyMzY5X3N0YXRlRGlhZ3JhbS1iYXJiRW5kKSIgc3R5bGU9IjtmaWxsOm5vbmUiIGNsYXNzPSJlZGdlLXRoaWNrbmVzcy1ub3JtYWwgZWRnZS1wYXR0ZXJuLXNvbGlkIHRyYW5zaXRpb24iIGlkPSJlZGdlMyIgZD0iTTIxMy44MTMsMzM3TDIwNC45NCwzNDMuMDQyQzE5Ni4wNjgsMzQ5LjA4MywxNzguMzIyLDM2MS4xNjcsMTY5LjQ0OSwzNzMuMjVDMTYwLjU3NiwzODUuMzMzLDE2MC41NzYsMzk3LjQxNywxNjAuNTc2LDQwMy40NThMMTYwLjU3Niw0MDkuNSI+PC9wYXRoPjxwYXRoIG1hcmtlci1lbmQ9InVybCgjZ2VNZXJtYWlkT3V0cHV0LTE3Mzg5MDQ5MzIzNjlfc3RhdGVEaWFncmFtLWJhcmJFbmQpIiBzdHlsZT0iO2ZpbGw6bm9uZSIgY2xhc3M9ImVkZ2UtdGhpY2tuZXNzLW5vcm1hbCBlZGdlLXBhdHRlcm4tc29saWQgdHJhbnNpdGlvbiIgaWQ9ImVkZ2U0IiBkPSJNMTYwLjU3Niw0NDkuNUwxNjAuNTc2LDQ1NS41NDJDMTYwLjU3Niw0NjEuNTgzLDE2MC41NzYsNDczLjY2NywxNjAuNTc2LDQ4NS43NUMxNjAuNTc2LDQ5Ny44MzMsMTYwLjU3Niw1MDkuOTE3LDE2MC41NzYsNTE1Ljk1OEwxNjAuNTc2LDUyMiI+PC9wYXRoPjxwYXRoIG1hcmtlci1lbmQ9InVybCgjZ2VNZXJtYWlkT3V0cHV0LTE3Mzg5MDQ5MzIzNjlfc3RhdGVEaWFncmFtLWJhcmJFbmQpIiBzdHlsZT0iO2ZpbGw6bm9uZSIgY2xhc3M9ImVkZ2UtdGhpY2tuZXNzLW5vcm1hbCBlZGdlLXBhdHRlcm4tc29saWQgdHJhbnNpdGlvbiIgaWQ9ImVkZ2U1IiBkPSJNMTMzLjE1Myw1NjJMMTI0Ljg2OSw1NjguMDQyQzExNi41ODUsNTc0LjA4MywxMDAuMDE3LDU4Ni4xNjcsOTEuNzMzLDU5OC4yNUM4My40NDksNjEwLjMzMyw4My40NDksNjIyLjQxNyw4My40NDksNjI4LjQ1OEw4My40NDksNjM0LjUiPjwvcGF0aD48cGF0aCBtYXJrZXItZW5kPSJ1cmwoI2dlTWVybWFpZE91dHB1dC0xNzM4OTA0OTMyMzY5X3N0YXRlRGlhZ3JhbS1iYXJiRW5kKSIgc3R5bGU9IjtmaWxsOm5vbmUiIGNsYXNzPSJlZGdlLXRoaWNrbmVzcy1ub3JtYWwgZWRnZS1wYXR0ZXJuLXNvbGlkIHRyYW5zaXRpb24iIGlkPSJlZGdlNiIgZD0iTTE5My42Niw1NjJMMjAzLjY1Myw1NjguMDQyQzIxMy42NDcsNTc0LjA4MywyMzMuNjM1LDU4Ni4xNjcsMjUyLjUwMiw1OTguMjVDMjcxLjM2OSw2MTAuMzMzLDI4OS4xMTQsNjIyLjQxNywyOTcuOTg3LDYyOC40NThMMzA2Ljg2LDYzNC41Ij48L3BhdGg+PHBhdGggbWFya2VyLWVuZD0idXJsKCNnZU1lcm1haWRPdXRwdXQtMTczODkwNDkzMjM2OV9zdGF0ZURpYWdyYW0tYmFyYkVuZCkiIHN0eWxlPSI7ZmlsbDpub25lIiBjbGFzcz0iZWRnZS10aGlja25lc3Mtbm9ybWFsIGVkZ2UtcGF0dGVybi1zb2xpZCB0cmFuc2l0aW9uIiBpZD0iZWRnZTciIGQ9Ik04My40NDksNjc0LjVMODMuNDQ5LDY4MC41NDJDODMuNDQ5LDY4Ni41ODMsODMuNDQ5LDY5OC42NjcsODMuNDQ5LDcxMC43NUM4My40NDksNzIyLjgzMyw4My40NDksNzM0LjkxNyw4My40NDksNzQwLjk1OEw4My40NDksNzQ3Ij48L3BhdGg+PHBhdGggbWFya2VyLWVuZD0idXJsKCNnZU1lcm1haWRPdXRwdXQtMTczODkwNDkzMjM2OV9zdGF0ZURpYWdyYW0tYmFyYkVuZCkiIHN0eWxlPSI7ZmlsbDpub25lIiBjbGFzcz0iZWRnZS10aGlja25lc3Mtbm9ybWFsIGVkZ2UtcGF0dGVybi1zb2xpZCB0cmFuc2l0aW9uIiBpZD0iZWRnZTgiIGQ9Ik0zNTEuNDg3LDYzNC41TDM1Ni4wOTUsNjI4LjQ1OEMzNjAuNzAzLDYyMi40MTcsMzY5LjkxOSw2MTAuMzMzLDM3NC41MjcsNTk0LjkxN0MzNzkuMTM1LDU3OS41LDM3OS4xMzUsNTYwLjc1LDM3OS4xMzUsNTQyQzM3OS4xMzUsNTIzLjI1LDM3OS4xMzUsNTA0LjUsMzc5LjEzNSw0ODUuNzVDMzc5LjEzNSw0NjcsMzc5LjEzNSw0NDguMjUsMzc5LjEzNSw0MjkuNUMzNzkuMTM1LDQxMC43NSwzNzkuMTM1LDM5MiwzNjQuNTMzLDM3Ni41ODNDMzQ5LjkzMSwzNjEuMTY3LDMyMC43MjcsMzQ5LjA4MywzMDYuMTI1LDM0My4wNDJMMjkxLjUyMywzMzciPjwvcGF0aD48cGF0aCBtYXJrZXItZW5kPSJ1cmwoI2dlTWVybWFpZE91dHB1dC0xNzM4OTA0OTMyMzY5X3N0YXRlRGlhZ3JhbS1iYXJiRW5kKSIgc3R5bGU9IjtmaWxsOm5vbmUiIGNsYXNzPSJlZGdlLXRoaWNrbmVzcy1ub3JtYWwgZWRnZS1wYXR0ZXJuLXNvbGlkIHRyYW5zaXRpb24iIGlkPSJlZGdlOSIgZD0iTTgzLjQ0OSw3ODdMODMuNDQ5LDc5MS4xNjdDODMuNDQ5LDc5NS4zMzMsODMuNDQ5LDgwMy42NjcsODMuNDQ5LDgxMkM4My40NDksODIwLjMzMyw4My40NDksODI4LjY2Nyw4My40NDksODMyLjgzM0w4My40NDksODM3Ij48L3BhdGg+PC9nPjxnIGNsYXNzPSJlZGdlTGFiZWxzIj48Zz48cmVjdCBzdHlsZT0ic3Ryb2tlOiBub25lIiBjbGFzcz0iYmFja2dyb3VuZCI+PC9yZWN0PjwvZz48Zz48cmVjdCBzdHlsZT0ic3Ryb2tlOiBub25lIiBjbGFzcz0iYmFja2dyb3VuZCI+PC9yZWN0PjwvZz48ZyBjbGFzcz0iZWRnZUxhYmVsIj48ZyB0cmFuc2Zvcm09InRyYW5zbGF0ZSgwLCAwKSIgY2xhc3M9ImxhYmVsIj48dGV4dCB5PSItMTAuMSI+PHRzcGFuIGR5PSIxLjFlbSIgeT0iLTAuMWVtIiB4PSIwIiBjbGFzcz0idGV4dC1vdXRlci10c3BhbiI+PC90c3Bhbj48L3RleHQ+PC9nPjwvZz48ZyB0cmFuc2Zvcm09InRyYW5zbGF0ZSgyNDMuMTg1NTQ2ODc1LCAxNDguMjUpIiBjbGFzcz0iZWRnZUxhYmVsIj48ZyB0cmFuc2Zvcm09InRyYW5zbGF0ZSgtNDYuMTcxODc1LCAtMTEuMjUpIiBjbGFzcz0ibGFiZWwiPjxnPjxyZWN0IGhlaWdodD0iMjIuNSIgd2lkdGg9IjkyLjM0Mzc1IiB5PSItMSIgeD0iLTIiIHN0eWxlPSIiIGNsYXNzPSJiYWNrZ3JvdW5kIj48L3JlY3Q+PHRleHQgc3R5bGU9IiIgeT0iLTEwLjEiPjx0c3BhbiBkeT0iMS4xZW0iIHk9Ii0wLjFlbSIgeD0iMCIgY2xhc3M9InRleHQtb3V0ZXItdHNwYW4iPjx0c3BhbiBmb250LXdlaWdodD0ibm9ybWFsIiBjbGFzcz0idGV4dC1pbm5lci10c3BhbiIgZm9udC1zdHlsZT0ibm9ybWFsIj5TZWxlY3RzPC90c3Bhbj48dHNwYW4gZm9udC13ZWlnaHQ9Im5vcm1hbCIgY2xhc3M9InRleHQtaW5uZXItdHNwYW4iIGZvbnQtc3R5bGU9Im5vcm1hbCI+IGl0ZW08L3RzcGFuPjwvdHNwYW4+PC90ZXh0PjwvZz48L2c+PC9nPjxnIHRyYW5zZm9ybT0idHJhbnNsYXRlKDI0My4xODU1NDY4NzUsIDI2MC43NSkiIGNsYXNzPSJlZGdlTGFiZWwiPjxnIHRyYW5zZm9ybT0idHJhbnNsYXRlKC00Mi43NSwgLTExLjI1KSIgY2xhc3M9ImxhYmVsIj48Zz48cmVjdCBoZWlnaHQ9IjIyLjUiIHdpZHRoPSI4NS41IiB5PSItMSIgeD0iLTIiIHN0eWxlPSIiIGNsYXNzPSJiYWNrZ3JvdW5kIj48L3JlY3Q+PHRleHQgc3R5bGU9IiIgeT0iLTEwLjEiPjx0c3BhbiBkeT0iMS4xZW0iIHk9Ii0wLjFlbSIgeD0iMCIgY2xhc3M9InRleHQtb3V0ZXItdHNwYW4iPjx0c3BhbiBmb250LXdlaWdodD0ibm9ybWFsIiBjbGFzcz0idGV4dC1pbm5lci10c3BhbiIgZm9udC1zdHlsZT0ibm9ybWFsIj5JdGVtPC90c3Bhbj48dHNwYW4gZm9udC13ZWlnaHQ9Im5vcm1hbCIgY2xhc3M9InRleHQtaW5uZXItdHNwYW4iIGZvbnQtc3R5bGU9Im5vcm1hbCI+IGFkZGVkPC90c3Bhbj48L3RzcGFuPjwvdGV4dD48L2c+PC9nPjwvZz48ZyB0cmFuc2Zvcm09InRyYW5zbGF0ZSgxNjAuNTc2MTcxODc1LCAzNzMuMjUpIiBjbGFzcz0iZWRnZUxhYmVsIj48ZyB0cmFuc2Zvcm09InRyYW5zbGF0ZSgtNzguNzYxNzE4NzUsIC0xMS4yNSkiIGNsYXNzPSJsYWJlbCI+PGc+PHJlY3QgaGVpZ2h0PSIyMi41IiB3aWR0aD0iMTU3LjUyMzQzNzUiIHk9Ii0xIiB4PSItMiIgc3R5bGU9IiIgY2xhc3M9ImJhY2tncm91bmQiPjwvcmVjdD48dGV4dCBzdHlsZT0iIiB5PSItMTAuMSI+PHRzcGFuIGR5PSIxLjFlbSIgeT0iLTAuMWVtIiB4PSIwIiBjbGFzcz0idGV4dC1vdXRlci10c3BhbiI+PHRzcGFuIGZvbnQtd2VpZ2h0PSJub3JtYWwiIGNsYXNzPSJ0ZXh0LWlubmVyLXRzcGFuIiBmb250LXN0eWxlPSJub3JtYWwiPlByb2NlZWRzPC90c3Bhbj48dHNwYW4gZm9udC13ZWlnaHQ9Im5vcm1hbCIgY2xhc3M9InRleHQtaW5uZXItdHNwYW4iIGZvbnQtc3R5bGU9Im5vcm1hbCI+IHRvPC90c3Bhbj48dHNwYW4gZm9udC13ZWlnaHQ9Im5vcm1hbCIgY2xhc3M9InRleHQtaW5uZXItdHNwYW4iIGZvbnQtc3R5bGU9Im5vcm1hbCI+IGNoZWNrb3V0PC90c3Bhbj48L3RzcGFuPjwvdGV4dD48L2c+PC9nPjwvZz48ZyB0cmFuc2Zvcm09InRyYW5zbGF0ZSgxNjAuNTc2MTcxODc1LCA0ODUuNzUpIiBjbGFzcz0iZWRnZUxhYmVsIj48ZyB0cmFuc2Zvcm09InRyYW5zbGF0ZSgtODQuNTk3NjU2MjUsIC0xMS4yNSkiIGNsYXNzPSJsYWJlbCI+PGc+PHJlY3QgaGVpZ2h0PSIyMi41IiB3aWR0aD0iMTY5LjE5NTMxMjUiIHk9Ii0xIiB4PSItMiIgc3R5bGU9IiIgY2xhc3M9ImJhY2tncm91bmQiPjwvcmVjdD48dGV4dCBzdHlsZT0iIiB5PSItMTAuMSI+PHRzcGFuIGR5PSIxLjFlbSIgeT0iLTAuMWVtIiB4PSIwIiBjbGFzcz0idGV4dC1vdXRlci10c3BhbiI+PHRzcGFuIGZvbnQtd2VpZ2h0PSJub3JtYWwiIGNsYXNzPSJ0ZXh0LWlubmVyLXRzcGFuIiBmb250LXN0eWxlPSJub3JtYWwiPkVudGVyczwvdHNwYW4+PHRzcGFuIGZvbnQtd2VpZ2h0PSJub3JtYWwiIGNsYXNzPSJ0ZXh0LWlubmVyLXRzcGFuIiBmb250LXN0eWxlPSJub3JtYWwiPiBwYXltZW50PC90c3Bhbj48dHNwYW4gZm9udC13ZWlnaHQ9Im5vcm1hbCIgY2xhc3M9InRleHQtaW5uZXItdHNwYW4iIGZvbnQtc3R5bGU9Im5vcm1hbCI+IGRldGFpbHM8L3RzcGFuPjwvdHNwYW4+PC90ZXh0PjwvZz48L2c+PC9nPjxnIHRyYW5zZm9ybT0idHJhbnNsYXRlKDgzLjQ0OTIxODc1LCA1OTguMjUpIiBjbGFzcz0iZWRnZUxhYmVsIj48ZyB0cmFuc2Zvcm09InRyYW5zbGF0ZSgtNjguNDQ5MjE4NzUsIC0xMS4yNSkiIGNsYXNzPSJsYWJlbCI+PGc+PHJlY3QgaGVpZ2h0PSIyMi41IiB3aWR0aD0iMTM2Ljg5ODQzNzUiIHk9Ii0xIiB4PSItMiIgc3R5bGU9IiIgY2xhc3M9ImJhY2tncm91bmQiPjwvcmVjdD48dGV4dCBzdHlsZT0iIiB5PSItMTAuMSI+PHRzcGFuIGR5PSIxLjFlbSIgeT0iLTAuMWVtIiB4PSIwIiBjbGFzcz0idGV4dC1vdXRlci10c3BhbiI+PHRzcGFuIGZvbnQtd2VpZ2h0PSJub3JtYWwiIGNsYXNzPSJ0ZXh0LWlubmVyLXRzcGFuIiBmb250LXN0eWxlPSJub3JtYWwiPlBheW1lbnQ8L3RzcGFuPjx0c3BhbiBmb250LXdlaWdodD0ibm9ybWFsIiBjbGFzcz0idGV4dC1pbm5lci10c3BhbiIgZm9udC1zdHlsZT0ibm9ybWFsIj4gYXBwcm92ZWQ8L3RzcGFuPjwvdHNwYW4+PC90ZXh0PjwvZz48L2c+PC9nPjxnIHRyYW5zZm9ybT0idHJhbnNsYXRlKDI1My42MjMwNDY4NzUsIDU5OC4yNSkiIGNsYXNzPSJlZGdlTGFiZWwiPjxnIHRyYW5zZm9ybT0idHJhbnNsYXRlKC02NS44MDQ2ODc1LCAtMTEuMjUpIiBjbGFzcz0ibGFiZWwiPjxnPjxyZWN0IGhlaWdodD0iMjIuNSIgd2lkdGg9IjEzMS42MDkzNzUiIHk9Ii0xIiB4PSItMiIgc3R5bGU9IiIgY2xhc3M9ImJhY2tncm91bmQiPjwvcmVjdD48dGV4dCBzdHlsZT0iIiB5PSItMTAuMSI+PHRzcGFuIGR5PSIxLjFlbSIgeT0iLTAuMWVtIiB4PSIwIiBjbGFzcz0idGV4dC1vdXRlci10c3BhbiI+PHRzcGFuIGZvbnQtd2VpZ2h0PSJub3JtYWwiIGNsYXNzPSJ0ZXh0LWlubmVyLXRzcGFuIiBmb250LXN0eWxlPSJub3JtYWwiPlBheW1lbnQ8L3RzcGFuPjx0c3BhbiBmb250LXdlaWdodD0ibm9ybWFsIiBjbGFzcz0idGV4dC1pbm5lci10c3BhbiIgZm9udC1zdHlsZT0ibm9ybWFsIj4gZGVjbGluZWQ8L3RzcGFuPjwvdHNwYW4+PC90ZXh0PjwvZz48L2c+PC9nPjxnIHRyYW5zZm9ybT0idHJhbnNsYXRlKDgzLjQ0OTIxODc1LCA3MTAuNzUpIiBjbGFzcz0iZWRnZUxhYmVsIj48ZyB0cmFuc2Zvcm09InRyYW5zbGF0ZSgtNTUuNTU4NTkzNzUsIC0xMS4yNSkiIGNsYXNzPSJsYWJlbCI+PGc+PHJlY3QgaGVpZ2h0PSIyMi41IiB3aWR0aD0iMTExLjExNzE4NzUiIHk9Ii0xIiB4PSItMiIgc3R5bGU9IiIgY2xhc3M9ImJhY2tncm91bmQiPjwvcmVjdD48dGV4dCBzdHlsZT0iIiB5PSItMTAuMSI+PHRzcGFuIGR5PSIxLjFlbSIgeT0iLTAuMWVtIiB4PSIwIiBjbGFzcz0idGV4dC1vdXRlci10c3BhbiI+PHRzcGFuIGZvbnQtd2VpZ2h0PSJub3JtYWwiIGNsYXNzPSJ0ZXh0LWlubmVyLXRzcGFuIiBmb250LXN0eWxlPSJub3JtYWwiPkNvbmZpcm1zPC90c3Bhbj48dHNwYW4gZm9udC13ZWlnaHQ9Im5vcm1hbCIgY2xhc3M9InRleHQtaW5uZXItdHNwYW4iIGZvbnQtc3R5bGU9Im5vcm1hbCI+IG9yZGVyPC90c3Bhbj48L3RzcGFuPjwvdGV4dD48L2c+PC9nPjwvZz48ZyB0cmFuc2Zvcm09InRyYW5zbGF0ZSgzNzkuMTM0NzY1NjI1LCA0ODUuNzUpIiBjbGFzcz0iZWRnZUxhYmVsIj48ZyB0cmFuc2Zvcm09InRyYW5zbGF0ZSgtNjAuNjIxMDkzNzUsIC0xMS4yNSkiIGNsYXNzPSJsYWJlbCI+PGc+PHJlY3QgaGVpZ2h0PSIyMi41IiB3aWR0aD0iMTIxLjI0MjE4NzUiIHk9Ii0xIiB4PSItMiIgc3R5bGU9IiIgY2xhc3M9ImJhY2tncm91bmQiPjwvcmVjdD48dGV4dCBzdHlsZT0iIiB5PSItMTAuMSI+PHRzcGFuIGR5PSIxLjFlbSIgeT0iLTAuMWVtIiB4PSIwIiBjbGFzcz0idGV4dC1vdXRlci10c3BhbiI+PHRzcGFuIGZvbnQtd2VpZ2h0PSJub3JtYWwiIGNsYXNzPSJ0ZXh0LWlubmVyLXRzcGFuIiBmb250LXN0eWxlPSJub3JtYWwiPkNob29zZXM8L3RzcGFuPjx0c3BhbiBmb250LXdlaWdodD0ibm9ybWFsIiBjbGFzcz0idGV4dC1pbm5lci10c3BhbiIgZm9udC1zdHlsZT0ibm9ybWFsIj4gdG88L3RzcGFuPjx0c3BhbiBmb250LXdlaWdodD0ibm9ybWFsIiBjbGFzcz0idGV4dC1pbm5lci10c3BhbiIgZm9udC1zdHlsZT0ibm9ybWFsIj4gcmV0cnk8L3RzcGFuPjwvdHNwYW4+PC90ZXh0PjwvZz48L2c+PC9nPjxnIGNsYXNzPSJlZGdlTGFiZWwiPjxnIHRyYW5zZm9ybT0idHJhbnNsYXRlKDAsIDApIiBjbGFzcz0ibGFiZWwiPjx0ZXh0IHk9Ii0xMC4xIj48dHNwYW4gZHk9IjEuMWVtIiB5PSItMC4xZW0iIHg9IjAiIGNsYXNzPSJ0ZXh0LW91dGVyLXRzcGFuIj48L3RzcGFuPjwvdGV4dD48L2c+PC9nPjwvZz48ZyBjbGFzcz0ibm9kZXMiPjxnIHRyYW5zZm9ybT0idHJhbnNsYXRlKDI0My4xODU1NDY4NzUsIDE1KSIgaWQ9InN0YXRlLXJvb3Rfc3RhcnQtMCIgY2xhc3M9Im5vZGUgZGVmYXVsdCI+PGNpcmNsZSBoZWlnaHQ9IjE0IiB3aWR0aD0iMTQiIHI9IjciIGNsYXNzPSJzdGF0ZS1zdGFydCI+PC9jaXJjbGU+PC9nPjxnIHRyYW5zZm9ybT0idHJhbnNsYXRlKDI0My4xODU1NDY4NzUsIDkyKSIgaWQ9InN0YXRlLUJyb3dzaW5nLTEiIGNsYXNzPSJub2RlICBzdGF0ZWRpYWdyYW0tc3RhdGUiPjxyZWN0IGhlaWdodD0iNDAiIHdpZHRoPSI3OS41NzgxMjUiIHk9Ii0yMCIgeD0iLTM5Ljc4OTA2MjUiIHJ5PSI1IiByeD0iNSIgc3R5bGU9IiIgY2xhc3M9ImJhc2ljIGxhYmVsLWNvbnRhaW5lciI+PC9yZWN0PjxnIHRyYW5zZm9ybT0idHJhbnNsYXRlKC0zMS43ODkwNjI1LCAtMTIpIiBzdHlsZT0iIiBjbGFzcz0ibGFiZWwiPjxyZWN0PjwvcmVjdD48Zm9yZWlnbk9iamVjdCBoZWlnaHQ9IjI0IiB3aWR0aD0iNjMuNTc4MTI1Ij48ZGl2IHN0eWxlPSJkaXNwbGF5OiB0YWJsZS1jZWxsOyB3aGl0ZS1zcGFjZTogbm93cmFwOyBsaW5lLWhlaWdodDogMS41OyBtYXgtd2lkdGg6IDIwMHB4OyB0ZXh0LWFsaWduOiBjZW50ZXI7IiB4bWxucz0iaHR0cDovL3d3dy53My5vcmcvMTk5OS94aHRtbCI+PHNwYW4gY2xhc3M9Im5vZGVMYWJlbCI+PHA+QnJvd3Npbmc8L3A+PC9zcGFuPjwvZGl2PjwvZm9yZWlnbk9iamVjdD48L2c+PC9nPjxnIHRyYW5zZm9ybT0idHJhbnNsYXRlKDI0My4xODU1NDY4NzUsIDIwNC41KSIgaWQ9InN0YXRlLUFkZGluZ1RvQ2FydC0yIiBjbGFzcz0ibm9kZSAgc3RhdGVkaWFncmFtLXN0YXRlIj48cmVjdCBoZWlnaHQ9IjQwIiB3aWR0aD0iMTExLjAyMzQzNzUiIHk9Ii0yMCIgeD0iLTU1LjUxMTcxODc1IiByeT0iNSIgcng9IjUiIHN0eWxlPSIiIGNsYXNzPSJiYXNpYyBsYWJlbC1jb250YWluZXIiPjwvcmVjdD48ZyB0cmFuc2Zvcm09InRyYW5zbGF0ZSgtNDcuNTExNzE4NzUsIC0xMikiIHN0eWxlPSIiIGNsYXNzPSJsYWJlbCI+PHJlY3Q+PC9yZWN0Pjxmb3JlaWduT2JqZWN0IGhlaWdodD0iMjQiIHdpZHRoPSI5NS4wMjM0Mzc1Ij48ZGl2IHN0eWxlPSJkaXNwbGF5OiB0YWJsZS1jZWxsOyB3aGl0ZS1zcGFjZTogbm93cmFwOyBsaW5lLWhlaWdodDogMS41OyBtYXgtd2lkdGg6IDIwMHB4OyB0ZXh0LWFsaWduOiBjZW50ZXI7IiB4bWxucz0iaHR0cDovL3d3dy53My5vcmcvMTk5OS94aHRtbCI+PHNwYW4gY2xhc3M9Im5vZGVMYWJlbCI+PHA+QWRkaW5nVG9DYXJ0PC9wPjwvc3Bhbj48L2Rpdj48L2ZvcmVpZ25PYmplY3Q+PC9nPjwvZz48ZyB0cmFuc2Zvcm09InRyYW5zbGF0ZSgyNDMuMTg1NTQ2ODc1LCAzMTcpIiBpZD0ic3RhdGUtQ2FydFJldmlldy04IiBjbGFzcz0ibm9kZSAgc3RhdGVkaWFncmFtLXN0YXRlIj48cmVjdCBoZWlnaHQ9IjQwIiB3aWR0aD0iOTYuOTYwOTM3NSIgeT0iLTIwIiB4PSItNDguNDgwNDY4NzUiIHJ5PSI1IiByeD0iNSIgc3R5bGU9IiIgY2xhc3M9ImJhc2ljIGxhYmVsLWNvbnRhaW5lciI+PC9yZWN0PjxnIHRyYW5zZm9ybT0idHJhbnNsYXRlKC00MC40ODA0Njg3NSwgLTEyKSIgc3R5bGU9IiIgY2xhc3M9ImxhYmVsIj48cmVjdD48L3JlY3Q+PGZvcmVpZ25PYmplY3QgaGVpZ2h0PSIyNCIgd2lkdGg9IjgwLjk2MDkzNzUiPjxkaXYgc3R5bGU9ImRpc3BsYXk6IHRhYmxlLWNlbGw7IHdoaXRlLXNwYWNlOiBub3dyYXA7IGxpbmUtaGVpZ2h0OiAxLjU7IG1heC13aWR0aDogMjAwcHg7IHRleHQtYWxpZ246IGNlbnRlcjsiIHhtbG5zPSJodHRwOi8vd3d3LnczLm9yZy8xOTk5L3hodG1sIj48c3BhbiBjbGFzcz0ibm9kZUxhYmVsIj48cD5DYXJ0UmV2aWV3PC9wPjwvc3Bhbj48L2Rpdj48L2ZvcmVpZ25PYmplY3Q+PC9nPjwvZz48ZyB0cmFuc2Zvcm09InRyYW5zbGF0ZSgxNjAuNTc2MTcxODc1LCA0MjkuNSkiIGlkPSJzdGF0ZS1DaGVja291dC00IiBjbGFzcz0ibm9kZSAgc3RhdGVkaWFncmFtLXN0YXRlIj48cmVjdCBoZWlnaHQ9IjQwIiB3aWR0aD0iODIuNzAzMTI1IiB5PSItMjAiIHg9Ii00MS4zNTE1NjI1IiByeT0iNSIgcng9IjUiIHN0eWxlPSIiIGNsYXNzPSJiYXNpYyBsYWJlbC1jb250YWluZXIiPjwvcmVjdD48ZyB0cmFuc2Zvcm09InRyYW5zbGF0ZSgtMzMuMzUxNTYyNSwgLTEyKSIgc3R5bGU9IiIgY2xhc3M9ImxhYmVsIj48cmVjdD48L3JlY3Q+PGZvcmVpZ25PYmplY3QgaGVpZ2h0PSIyNCIgd2lkdGg9IjY2LjcwMzEyNSI+PGRpdiBzdHlsZT0iZGlzcGxheTogdGFibGUtY2VsbDsgd2hpdGUtc3BhY2U6IG5vd3JhcDsgbGluZS1oZWlnaHQ6IDEuNTsgbWF4LXdpZHRoOiAyMDBweDsgdGV4dC1hbGlnbjogY2VudGVyOyIgeG1sbnM9Imh0dHA6Ly93d3cudzMub3JnLzE5OTkveGh0bWwiPjxzcGFuIGNsYXNzPSJub2RlTGFiZWwiPjxwPkNoZWNrb3V0PC9wPjwvc3Bhbj48L2Rpdj48L2ZvcmVpZ25PYmplY3Q+PC9nPjwvZz48ZyB0cmFuc2Zvcm09InRyYW5zbGF0ZSgxNjAuNTc2MTcxODc1LCA1NDIpIiBpZD0ic3RhdGUtUGF5bWVudFByb2Nlc3NpbmctNiIgY2xhc3M9Im5vZGUgIHN0YXRlZGlhZ3JhbS1zdGF0ZSI+PHJlY3QgaGVpZ2h0PSI0MCIgd2lkdGg9IjE1MS40NzY1NjI1IiB5PSItMjAiIHg9Ii03NS43MzgyODEyNSIgcnk9IjUiIHJ4PSI1IiBzdHlsZT0iIiBjbGFzcz0iYmFzaWMgbGFiZWwtY29udGFpbmVyIj48L3JlY3Q+PGcgdHJhbnNmb3JtPSJ0cmFuc2xhdGUoLTY3LjczODI4MTI1LCAtMTIpIiBzdHlsZT0iIiBjbGFzcz0ibGFiZWwiPjxyZWN0PjwvcmVjdD48Zm9yZWlnbk9iamVjdCBoZWlnaHQ9IjI0IiB3aWR0aD0iMTM1LjQ3NjU2MjUiPjxkaXYgc3R5bGU9ImRpc3BsYXk6IHRhYmxlLWNlbGw7IHdoaXRlLXNwYWNlOiBub3dyYXA7IGxpbmUtaGVpZ2h0OiAxLjU7IG1heC13aWR0aDogMjAwcHg7IHRleHQtYWxpZ246IGNlbnRlcjsiIHhtbG5zPSJodHRwOi8vd3d3LnczLm9yZy8xOTk5L3hodG1sIj48c3BhbiBjbGFzcz0ibm9kZUxhYmVsIj48cD5QYXltZW50UHJvY2Vzc2luZzwvcD48L3NwYW4+PC9kaXY+PC9mb3JlaWduT2JqZWN0PjwvZz48L2c+PGcgdHJhbnNmb3JtPSJ0cmFuc2xhdGUoODMuNDQ5MjE4NzUsIDY1NC41KSIgaWQ9InN0YXRlLVBheW1lbnRTdWNjZXNzZnVsLTciIGNsYXNzPSJub2RlICBzdGF0ZWRpYWdyYW0tc3RhdGUiPjxyZWN0IGhlaWdodD0iNDAiIHdpZHRoPSIxNTAuODk4NDM3NSIgeT0iLTIwIiB4PSItNzUuNDQ5MjE4NzUiIHJ5PSI1IiByeD0iNSIgc3R5bGU9IiIgY2xhc3M9ImJhc2ljIGxhYmVsLWNvbnRhaW5lciI+PC9yZWN0PjxnIHRyYW5zZm9ybT0idHJhbnNsYXRlKC02Ny40NDkyMTg3NSwgLTEyKSIgc3R5bGU9IiIgY2xhc3M9ImxhYmVsIj48cmVjdD48L3JlY3Q+PGZvcmVpZ25PYmplY3QgaGVpZ2h0PSIyNCIgd2lkdGg9IjEzNC44OTg0Mzc1Ij48ZGl2IHN0eWxlPSJkaXNwbGF5OiB0YWJsZS1jZWxsOyB3aGl0ZS1zcGFjZTogbm93cmFwOyBsaW5lLWhlaWdodDogMS41OyBtYXgtd2lkdGg6IDIwMHB4OyB0ZXh0LWFsaWduOiBjZW50ZXI7IiB4bWxucz0iaHR0cDovL3d3dy53My5vcmcvMTk5OS94aHRtbCI+PHNwYW4gY2xhc3M9Im5vZGVMYWJlbCI+PHA+UGF5bWVudFN1Y2Nlc3NmdWw8L3A+PC9zcGFuPjwvZGl2PjwvZm9yZWlnbk9iamVjdD48L2c+PC9nPjxnIHRyYW5zZm9ybT0idHJhbnNsYXRlKDMzNi4yMzI0MjE4NzUsIDY1NC41KSIgaWQ9InN0YXRlLVBheW1lbnRGYWlsZWQtOCIgY2xhc3M9Im5vZGUgIHN0YXRlZGlhZ3JhbS1zdGF0ZSI+PHJlY3QgaGVpZ2h0PSI0MCIgd2lkdGg9IjEyMS4yODkwNjI1IiB5PSItMjAiIHg9Ii02MC42NDQ1MzEyNSIgcnk9IjUiIHJ4PSI1IiBzdHlsZT0iIiBjbGFzcz0iYmFzaWMgbGFiZWwtY29udGFpbmVyIj48L3JlY3Q+PGcgdHJhbnNmb3JtPSJ0cmFuc2xhdGUoLTUyLjY0NDUzMTI1LCAtMTIpIiBzdHlsZT0iIiBjbGFzcz0ibGFiZWwiPjxyZWN0PjwvcmVjdD48Zm9yZWlnbk9iamVjdCBoZWlnaHQ9IjI0IiB3aWR0aD0iMTA1LjI4OTA2MjUiPjxkaXYgc3R5bGU9ImRpc3BsYXk6IHRhYmxlLWNlbGw7IHdoaXRlLXNwYWNlOiBub3dyYXA7IGxpbmUtaGVpZ2h0OiAxLjU7IG1heC13aWR0aDogMjAwcHg7IHRleHQtYWxpZ246IGNlbnRlcjsiIHhtbG5zPSJodHRwOi8vd3d3LnczLm9yZy8xOTk5L3hodG1sIj48c3BhbiBjbGFzcz0ibm9kZUxhYmVsIj48cD5QYXltZW50RmFpbGVkPC9wPjwvc3Bhbj48L2Rpdj48L2ZvcmVpZ25PYmplY3Q+PC9nPjwvZz48ZyB0cmFuc2Zvcm09InRyYW5zbGF0ZSg4My40NDkyMTg3NSwgNzY3KSIgaWQ9InN0YXRlLU9yZGVyQ29tcGxldGUtOSIgY2xhc3M9Im5vZGUgIHN0YXRlZGlhZ3JhbS1zdGF0ZSI+PHJlY3QgaGVpZ2h0PSI0MCIgd2lkdGg9IjEyNS43MjY1NjI1IiB5PSItMjAiIHg9Ii02Mi44NjMyODEyNSIgcnk9IjUiIHJ4PSI1IiBzdHlsZT0iIiBjbGFzcz0iYmFzaWMgbGFiZWwtY29udGFpbmVyIj48L3JlY3Q+PGcgdHJhbnNmb3JtPSJ0cmFuc2xhdGUoLTU0Ljg2MzI4MTI1LCAtMTIpIiBzdHlsZT0iIiBjbGFzcz0ibGFiZWwiPjxyZWN0PjwvcmVjdD48Zm9yZWlnbk9iamVjdCBoZWlnaHQ9IjI0IiB3aWR0aD0iMTA5LjcyNjU2MjUiPjxkaXYgc3R5bGU9ImRpc3BsYXk6IHRhYmxlLWNlbGw7IHdoaXRlLXNwYWNlOiBub3dyYXA7IGxpbmUtaGVpZ2h0OiAxLjU7IG1heC13aWR0aDogMjAwcHg7IHRleHQtYWxpZ246IGNlbnRlcjsiIHhtbG5zPSJodHRwOi8vd3d3LnczLm9yZy8xOTk5L3hodG1sIj48c3BhbiBjbGFzcz0ibm9kZUxhYmVsIj48cD5PcmRlckNvbXBsZXRlPC9wPjwvc3Bhbj48L2Rpdj48L2ZvcmVpZ25PYmplY3Q+PC9nPjwvZz48ZyB0cmFuc2Zvcm09InRyYW5zbGF0ZSg4My40NDkyMTg3NSwgODQ0KSIgaWQ9InN0YXRlLXJvb3RfZW5kLTkiIGNsYXNzPSJub2RlIGRlZmF1bHQiPjxnPjxwYXRoIHN0eWxlPSIiIGZpbGw9IiNlZWUiIHN0cm9rZS13aWR0aD0iMCIgc3Ryb2tlPSJub25lIiBkPSJNNyAwIEM3IDAuNDA1MTc5MDgxMjIyODM3NDcsIDYuOTY0MDEyODgwMTY4NTYzIDAuODE2NTEzNzQzMTIxODk5LCA2Ljg5MzY1NDI3MTA4NTQ1NiAxLjIxNTUzNzI0MzY2ODUxMjMgQzYuODIzMjk1NjYyMDAyMzQ5IDEuNjE0NTYwNzQ0MjE1MTI1NywgNi43MTY0Mjc3NTI5MzM3NTYgMi4wMTMzOTcyMTA1NTc3NjYsIDYuNTc3ODQ4MzQ1NTAxMzU4NiAyLjM5NDE0MTAwMzI3OTY4MSBDNi40MzkyNjg5MzgwNjg5NjEgMi43NzQ4ODQ3OTYwMDE1OTU0LCA2LjI2NDc2NzM2NzEwMjQ5IDMuMTQ5MTA0NjIyNTc4OTg0LCA2LjA2MjE3NzgyNjQ5MTA3MSAzLjQ5OTk5OTk5OTk5OTk5OTYgQzUuODU5NTg4Mjg1ODc5NjUzIDMuODUwODk1Mzc3NDIxMDE1MywgNS42MjI3NTUxOTQ5NDcwNjMgNC4xODkxMjgwODQxNjY5NjcsIDUuMzYyMzExMTAxODMyODQ2IDQuNDk5NTEzMjY3ODA1Nzc0IEM1LjEwMTg2NzAwODcxODYzIDQuODA5ODk4NDUxNDQ0NTgyLCA0LjgwOTg5ODQ1MTQ0NDU4MyA1LjEwMTg2NzAwODcxODYzLCA0LjQ5OTUxMzI2NzgwNTc3NSA1LjM2MjMxMTEwMTgzMjg0NiBDNC4xODkxMjgwODQxNjY5NjggNS42MjI3NTUxOTQ5NDcwNjMsIDMuODUwODk1Mzc3NDIxMDE2NiA1Ljg1OTU4ODI4NTg3OTY1MiwgMy41MDAwMDAwMDAwMDAwMDEgNi4wNjIxNzc4MjY0OTEwNyBDMy4xNDkxMDQ2MjI1Nzg5ODUgNi4yNjQ3NjczNjcxMDI0ODksIDIuNzc0ODg0Nzk2MDAxNTk2MyA2LjQzOTI2ODkzODA2ODk2MSwgMi4zOTQxNDEwMDMyNzk2ODE3IDYuNTc3ODQ4MzQ1NTAxMzU4NiBDMi4wMTMzOTcyMTA1NTc3NjcgNi43MTY0Mjc3NTI5MzM3NTYsIDEuNjE0NTYwNzQ0MjE1MTI2NCA2LjgyMzI5NTY2MjAwMjM0OSwgMS4yMTU1MzcyNDM2Njg1MTI4IDYuODkzNjU0MjcxMDg1NDU2IEMwLjgxNjUxMzc0MzEyMTg5OTIgNi45NjQwMTI4ODAxNjg1NjMsIDAuNDA1MTc5MDgxMjIyODM3OSA3LCA0LjI4NjI2Mzc5NzAxNTczNmUtMTYgNyBDLTAuNDA1MTc5MDgxMjIyODM3IDcsIC0wLjgxNjUxMzc0MzEyMTg5ODUgNi45NjQwMTI4ODAxNjg1NjMsIC0xLjIxNTUzNzI0MzY2ODUxMjEgNi44OTM2NTQyNzEwODU0NTYgQy0xLjYxNDU2MDc0NDIxNTEyNTcgNi44MjMyOTU2NjIwMDIzNDksIC0yLjAxMzM5NzIxMDU1Nzc2NjcgNi43MTY0Mjc3NTI5MzM3NTYsIC0yLjM5NDE0MTAwMzI3OTY4MSA2LjU3Nzg0ODM0NTUwMTM1ODYgQy0yLjc3NDg4NDc5NjAwMTU5NSA2LjQzOTI2ODkzODA2ODk2MSwgLTMuMTQ5MTA0NjIyNTc4OTgzIDYuMjY0NzY3MzY3MTAyNDksIC0zLjQ5OTk5OTk5OTk5OTk5ODIgNi4wNjIxNzc4MjY0OTEwNzEgQy0zLjg1MDg5NTM3NzQyMTAxMzUgNS44NTk1ODgyODU4Nzk2NTMsIC00LjE4OTEyODA4NDE2Njk2NiA1LjYyMjc1NTE5NDk0NzA2MzYsIC00LjQ5OTUxMzI2NzgwNTc3MyA1LjM2MjMxMTEwMTgzMjg0OCBDLTQuODA5ODk4NDUxNDQ0NTgxIDUuMTAxODY3MDA4NzE4NjMyLCAtNS4xMDE4NjcwMDg3MTg2MjggNC44MDk4OTg0NTE0NDQ1ODYsIC01LjM2MjMxMTEwMTgzMjg0MzUgNC40OTk1MTMyNjc4MDU3NzkgQy01LjYyMjc1NTE5NDk0NzA1OSA0LjE4OTEyODA4NDE2Njk3MSwgLTUuODU5NTg4Mjg1ODc5NjQ5IDMuODUwODk1Mzc3NDIxMDIwNiwgLTYuMDYyMTc3ODI2NDkxMDY4IDMuNTAwMDAwMDAwMDAwMDA1MyBDLTYuMjY0NzY3MzY3MTAyNDg2IDMuMTQ5MTA0NjIyNTc4OTksIC02LjQzOTI2ODkzODA2ODk1OCAyLjc3NDg4NDc5NjAwMTYwMiwgLTYuNTc3ODQ4MzQ1NTAxMzU2IDIuMzk0MTQxMDAzMjc5Njg4IEMtNi43MTY0Mjc3NTI5MzM3NTQgMi4wMTMzOTcyMTA1NTc3NzM4LCAtNi44MjMyOTU2NjIwMDIzNDcgMS42MTQ1NjA3NDQyMTUxMzQsIC02Ljg5MzY1NDI3MTA4NTQ1NCAxLjIxNTUzNzI0MzY2ODUyMSBDLTYuOTY0MDEyODgwMTY4NTYxNSAwLjgxNjUxMzc0MzEyMTkwOCwgLTYuOTk5OTk5OTk5OTk5OTk5IDAuNDA1MTc5MDgxMjIyODQ3MiwgLTcgMS4wMTgzMTI2MTY2MjU0NDYzZS0xNCBDLTcuMDAwMDAwMDAwMDAwMDAxIC0wLjQwNTE3OTA4MTIyMjgyNjg2LCAtNi45NjQwMTI4ODAxNjg1NjUgLTAuODE2NTEzNzQzMTIxODg3OCwgLTYuODkzNjU0MjcxMDg1NDU5IC0xLjIxNTUzNzI0MzY2ODUwMSBDLTYuODIzMjk1NjYyMDAyMzUyIC0xLjYxNDU2MDc0NDIxNTExNDIsIC02LjcxNjQyNzc1MjkzMzc1OSAtMi4wMTMzOTcyMTA1NTc3NTQyLCAtNi41Nzc4NDgzNDU1MDEzNjMgLTIuMzk0MTQxMDAzMjc5NjY5IEMtNi40MzkyNjg5MzgwNjg5NjcgLTIuNzc0ODg0Nzk2MDAxNTgzNCwgLTYuMjY0NzY3MzY3MTAyNDk2IC0zLjE0OTEwNDYyMjU3ODk3MiwgLTYuMDYyMTc3ODI2NDkxMDc4IC0zLjQ5OTk5OTk5OTk5OTk4NzYgQy01Ljg1OTU4ODI4NTg3OTY2MSAtMy44NTA4OTUzNzc0MjEwMDMzLCAtNS42MjI3NTUxOTQ5NDcwNzE1IC00LjE4OTEyODA4NDE2Njk1NDUsIC01LjM2MjMxMTEwMTgzMjg1NiAtNC40OTk1MTMyNjc4MDU3NjMgQy01LjEwMTg2NzAwODcxODY0IC00LjgwOTg5ODQ1MTQ0NDU3MSwgLTQuODA5ODk4NDUxNDQ0NTk0IC01LjEwMTg2NzAwODcxODYyLCAtNC40OTk1MTMyNjc4MDU3ODcgLTUuMzYyMzExMTAxODMyODM2IEMtNC4xODkxMjgwODQxNjY5NzkgLTUuNjIyNzU1MTk0OTQ3MDUzLCAtMy44NTA4OTUzNzc0MjEwMjggLTUuODU5NTg4Mjg1ODc5NjQzLCAtMy41MDAwMDAwMDAwMDAwMTMzIC02LjA2MjE3NzgyNjQ5MTA2MiBDLTMuMTQ5MTA0NjIyNTc4OTk4NSAtNi4yNjQ3NjczNjcxMDI0ODIsIC0yLjc3NDg4NDc5NjAwMTYxMSAtNi40MzkyNjg5MzgwNjg5NTQsIC0yLjM5NDE0MTAwMzI3OTY5NzMgLTYuNTc3ODQ4MzQ1NTAxMzUzIEMtMi4wMTMzOTcyMTA1NTc3ODM1IC02LjcxNjQyNzc1MjkzMzc1MiwgLTEuNjE0NTYwNzQ0MjE1MTQzNSAtNi44MjMyOTU2NjIwMDIzNDUsIC0xLjIxNTUzNzI0MzY2ODUzMDYgLTYuODkzNjU0MjcxMDg1NDUzIEMtMC44MTY1MTM3NDMxMjE5MTc2IC02Ljk2NDAxMjg4MDE2ODU2MTUsIC0wLjQwNTE3OTA4MTIyMjg1Njk1IC02Ljk5OTk5OTk5OTk5OTk5OSwgLTEuOTkzNzYyNTk1MjgwNzM1MmUtMTQgLTcgQzAuNDA1MTc5MDgxMjIyODE3MSAtNy4wMDAwMDAwMDAwMDAwMDEsIDAuODE2NTEzNzQzMTIxODc4MSAtNi45NjQwMTI4ODAxNjg1NjUsIDEuMjE1NTM3MjQzNjY4NDkxMyAtNi44OTM2NTQyNzEwODU0NiBDMS42MTQ1NjA3NDQyMTUxMDQ0IC02LjgyMzI5NTY2MjAwMjM1NCwgMi4wMTMzOTcyMTA1NTc3NDUgLTYuNzE2NDI3NzUyOTMzNzYzLCAyLjM5NDE0MTAwMzI3OTY1OTUgLTYuNTc3ODQ4MzQ1NTAxMzY2NSBDMi43NzQ4ODQ3OTYwMDE1NzQgLTYuNDM5MjY4OTM4MDY4OTcsIDMuMTQ5MTA0NjIyNTc4OTYzIC02LjI2NDc2NzM2NzEwMjUsIDMuNDk5OTk5OTk5OTk5OTc5IC02LjA2MjE3NzgyNjQ5MTA4MyBDMy44NTA4OTUzNzc0MjA5OTUzIC01Ljg1OTU4ODI4NTg3OTY2NSwgNC4xODkxMjgwODQxNjY5NDcgLTUuNjIyNzU1MTk0OTQ3MDc3LCA0LjQ5OTUxMzI2NzgwNTc1NiAtNS4zNjIzMTExMDE4MzI4NjIgQzQuODA5ODk4NDUxNDQ0NTY0IC01LjEwMTg2NzAwODcxODY0NzUsIDUuMTAxODY3MDA4NzE4NjEzIC00LjgwOTg5ODQ1MTQ0NDYwMiwgNS4zNjIzMTExMDE4MzI4MjkgLTQuNDk5NTEzMjY3ODA1Nzk2IEM1LjYyMjc1NTE5NDk0NzA0NiAtNC4xODkxMjgwODQxNjY5ODksIDUuODU5NTg4Mjg1ODc5NjM3IC0zLjg1MDg5NTM3NzQyMTAzOTMsIDYuMDYyMTc3ODI2NDkxMDU2IC0zLjUwMDAwMDAwMDAwMDAyNSBDNi4yNjQ3NjczNjcxMDI0NzU1IC0zLjE0OTEwNDYyMjU3OTAxMDUsIDYuNDM5MjY4OTM4MDY4OTQ5IC0yLjc3NDg4NDc5NjAwMTYyMywgNi41Nzc4NDgzNDU1MDEzNDggLTIuMzk0MTQxMDAzMjc5NzA5MiBDNi43MTY0Mjc3NTI5MzM3NDcgLTIuMDEzMzk3MjEwNTU3Nzk1NSwgNi44MjMyOTU2NjIwMDIzNDIgLTEuNjE0NTYwNzQ0MjE1MTU2MiwgNi44OTM2NTQyNzEwODU0NTEgLTEuMjE1NTM3MjQzNjY4NTQzNCBDNi45NjQwMTI4ODAxNjg1NiAtMC44MTY1MTM3NDMxMjE5MzA3LCA2Ljk4MjI3NTcxMTg0NzU3NSAtMC4yMDI1ODk1NDA2MTE0NTY3LCA3IC0zLjI4MDA3NTAyMDgzMTA2NzVlLTE0IEM3LjAxNzcyNDI4ODE1MjQyNSAwLjIwMjU4OTU0MDYxMTM5MTEsIDcuMDE3NzI0Mjg4MTUyNDI0IC0wLjIwMjU4OTU0MDYxMTQyNDIsIDcgMCI+PC9wYXRoPjxwYXRoIHN0eWxlPSIiIGZpbGw9Im5vbmUiIHN0cm9rZS13aWR0aD0iMiIgc3Ryb2tlPSIjNjY2IiBkPSJNNyAwIEM3IDAuNDA1MTc5MDgxMjIyODM3NDcsIDYuOTY0MDEyODgwMTY4NTYzIDAuODE2NTEzNzQzMTIxODk5LCA2Ljg5MzY1NDI3MTA4NTQ1NiAxLjIxNTUzNzI0MzY2ODUxMjMgQzYuODIzMjk1NjYyMDAyMzQ5IDEuNjE0NTYwNzQ0MjE1MTI1NywgNi43MTY0Mjc3NTI5MzM3NTYgMi4wMTMzOTcyMTA1NTc3NjYsIDYuNTc3ODQ4MzQ1NTAxMzU4NiAyLjM5NDE0MTAwMzI3OTY4MSBDNi40MzkyNjg5MzgwNjg5NjEgMi43NzQ4ODQ3OTYwMDE1OTU0LCA2LjI2NDc2NzM2NzEwMjQ5IDMuMTQ5MTA0NjIyNTc4OTg0LCA2LjA2MjE3NzgyNjQ5MTA3MSAzLjQ5OTk5OTk5OTk5OTk5OTYgQzUuODU5NTg4Mjg1ODc5NjUzIDMuODUwODk1Mzc3NDIxMDE1MywgNS42MjI3NTUxOTQ5NDcwNjMgNC4xODkxMjgwODQxNjY5NjcsIDUuMzYyMzExMTAxODMyODQ2IDQuNDk5NTEzMjY3ODA1Nzc0IEM1LjEwMTg2NzAwODcxODYzIDQuODA5ODk4NDUxNDQ0NTgyLCA0LjgwOTg5ODQ1MTQ0NDU4MyA1LjEwMTg2NzAwODcxODYzLCA0LjQ5OTUxMzI2NzgwNTc3NSA1LjM2MjMxMTEwMTgzMjg0NiBDNC4xODkxMjgwODQxNjY5NjggNS42MjI3NTUxOTQ5NDcwNjMsIDMuODUwODk1Mzc3NDIxMDE2NiA1Ljg1OTU4ODI4NTg3OTY1MiwgMy41MDAwMDAwMDAwMDAwMDEgNi4wNjIxNzc4MjY0OTEwNyBDMy4xNDkxMDQ2MjI1Nzg5ODUgNi4yNjQ3NjczNjcxMDI0ODksIDIuNzc0ODg0Nzk2MDAxNTk2MyA2LjQzOTI2ODkzODA2ODk2MSwgMi4zOTQxNDEwMDMyNzk2ODE3IDYuNTc3ODQ4MzQ1NTAxMzU4NiBDMi4wMTMzOTcyMTA1NTc3NjcgNi43MTY0Mjc3NTI5MzM3NTYsIDEuNjE0NTYwNzQ0MjE1MTI2NCA2LjgyMzI5NTY2MjAwMjM0OSwgMS4yMTU1MzcyNDM2Njg1MTI4IDYuODkzNjU0MjcxMDg1NDU2IEMwLjgxNjUxMzc0MzEyMTg5OTIgNi45NjQwMTI4ODAxNjg1NjMsIDAuNDA1MTc5MDgxMjIyODM3OSA3LCA0LjI4NjI2Mzc5NzAxNTczNmUtMTYgNyBDLTAuNDA1MTc5MDgxMjIyODM3IDcsIC0wLjgxNjUxMzc0MzEyMTg5ODUgNi45NjQwMTI4ODAxNjg1NjMsIC0xLjIxNTUzNzI0MzY2ODUxMjEgNi44OTM2NTQyNzEwODU0NTYgQy0xLjYxNDU2MDc0NDIxNTEyNTcgNi44MjMyOTU2NjIwMDIzNDksIC0yLjAxMzM5NzIxMDU1Nzc2NjcgNi43MTY0Mjc3NTI5MzM3NTYsIC0yLjM5NDE0MTAwMzI3OTY4MSA2LjU3Nzg0ODM0NTUwMTM1ODYgQy0yLjc3NDg4NDc5NjAwMTU5NSA2LjQzOTI2ODkzODA2ODk2MSwgLTMuMTQ5MTA0NjIyNTc4OTgzIDYuMjY0NzY3MzY3MTAyNDksIC0zLjQ5OTk5OTk5OTk5OTk5ODIgNi4wNjIxNzc4MjY0OTEwNzEgQy0zLjg1MDg5NTM3NzQyMTAxMzUgNS44NTk1ODgyODU4Nzk2NTMsIC00LjE4OTEyODA4NDE2Njk2NiA1LjYyMjc1NTE5NDk0NzA2MzYsIC00LjQ5OTUxMzI2NzgwNTc3MyA1LjM2MjMxMTEwMTgzMjg0OCBDLTQuODA5ODk4NDUxNDQ0NTgxIDUuMTAxODY3MDA4NzE4NjMyLCAtNS4xMDE4NjcwMDg3MTg2MjggNC44MDk4OTg0NTE0NDQ1ODYsIC01LjM2MjMxMTEwMTgzMjg0MzUgNC40OTk1MTMyNjc4MDU3NzkgQy01LjYyMjc1NTE5NDk0NzA1OSA0LjE4OTEyODA4NDE2Njk3MSwgLTUuODU5NTg4Mjg1ODc5NjQ5IDMuODUwODk1Mzc3NDIxMDIwNiwgLTYuMDYyMTc3ODI2NDkxMDY4IDMuNTAwMDAwMDAwMDAwMDA1MyBDLTYuMjY0NzY3MzY3MTAyNDg2IDMuMTQ5MTA0NjIyNTc4OTksIC02LjQzOTI2ODkzODA2ODk1OCAyLjc3NDg4NDc5NjAwMTYwMiwgLTYuNTc3ODQ4MzQ1NTAxMzU2IDIuMzk0MTQxMDAzMjc5Njg4IEMtNi43MTY0Mjc3NTI5MzM3NTQgMi4wMTMzOTcyMTA1NTc3NzM4LCAtNi44MjMyOTU2NjIwMDIzNDcgMS42MTQ1NjA3NDQyMTUxMzQsIC02Ljg5MzY1NDI3MTA4NTQ1NCAxLjIxNTUzNzI0MzY2ODUyMSBDLTYuOTY0MDEyODgwMTY4NTYxNSAwLjgxNjUxMzc0MzEyMTkwOCwgLTYuOTk5OTk5OTk5OTk5OTk5IDAuNDA1MTc5MDgxMjIyODQ3MiwgLTcgMS4wMTgzMTI2MTY2MjU0NDYzZS0xNCBDLTcuMDAwMDAwMDAwMDAwMDAxIC0wLjQwNTE3OTA4MTIyMjgyNjg2LCAtNi45NjQwMTI4ODAxNjg1NjUgLTAuODE2NTEzNzQzMTIxODg3OCwgLTYuODkzNjU0MjcxMDg1NDU5IC0xLjIxNTUzNzI0MzY2ODUwMSBDLTYuODIzMjk1NjYyMDAyMzUyIC0xLjYxNDU2MDc0NDIxNTExNDIsIC02LjcxNjQyNzc1MjkzMzc1OSAtMi4wMTMzOTcyMTA1NTc3NTQyLCAtNi41Nzc4NDgzNDU1MDEzNjMgLTIuMzk0MTQxMDAzMjc5NjY5IEMtNi40MzkyNjg5MzgwNjg5NjcgLTIuNzc0ODg0Nzk2MDAxNTgzNCwgLTYuMjY0NzY3MzY3MTAyNDk2IC0zLjE0OTEwNDYyMjU3ODk3MiwgLTYuMDYyMTc3ODI2NDkxMDc4IC0zLjQ5OTk5OTk5OTk5OTk4NzYgQy01Ljg1OTU4ODI4NTg3OTY2MSAtMy44NTA4OTUzNzc0MjEwMDMzLCAtNS42MjI3NTUxOTQ5NDcwNzE1IC00LjE4OTEyODA4NDE2Njk1NDUsIC01LjM2MjMxMTEwMTgzMjg1NiAtNC40OTk1MTMyNjc4MDU3NjMgQy01LjEwMTg2NzAwODcxODY0IC00LjgwOTg5ODQ1MTQ0NDU3MSwgLTQuODA5ODk4NDUxNDQ0NTk0IC01LjEwMTg2NzAwODcxODYyLCAtNC40OTk1MTMyNjc4MDU3ODcgLTUuMzYyMzExMTAxODMyODM2IEMtNC4xODkxMjgwODQxNjY5NzkgLTUuNjIyNzU1MTk0OTQ3MDUzLCAtMy44NTA4OTUzNzc0MjEwMjggLTUuODU5NTg4Mjg1ODc5NjQzLCAtMy41MDAwMDAwMDAwMDAwMTMzIC02LjA2MjE3NzgyNjQ5MTA2MiBDLTMuMTQ5MTA0NjIyNTc4OTk4NSAtNi4yNjQ3NjczNjcxMDI0ODIsIC0yLjc3NDg4NDc5NjAwMTYxMSAtNi40MzkyNjg5MzgwNjg5NTQsIC0yLjM5NDE0MTAwMzI3OTY5NzMgLTYuNTc3ODQ4MzQ1NTAxMzUzIEMtMi4wMTMzOTcyMTA1NTc3ODM1IC02LjcxNjQyNzc1MjkzMzc1MiwgLTEuNjE0NTYwNzQ0MjE1MTQzNSAtNi44MjMyOTU2NjIwMDIzNDUsIC0xLjIxNTUzNzI0MzY2ODUzMDYgLTYuODkzNjU0MjcxMDg1NDUzIEMtMC44MTY1MTM3NDMxMjE5MTc2IC02Ljk2NDAxMjg4MDE2ODU2MTUsIC0wLjQwNTE3OTA4MTIyMjg1Njk1IC02Ljk5OTk5OTk5OTk5OTk5OSwgLTEuOTkzNzYyNTk1MjgwNzM1MmUtMTQgLTcgQzAuNDA1MTc5MDgxMjIyODE3MSAtNy4wMDAwMDAwMDAwMDAwMDEsIDAuODE2NTEzNzQzMTIxODc4MSAtNi45NjQwMTI4ODAxNjg1NjUsIDEuMjE1NTM3MjQzNjY4NDkxMyAtNi44OTM2NTQyNzEwODU0NiBDMS42MTQ1NjA3NDQyMTUxMDQ0IC02LjgyMzI5NTY2MjAwMjM1NCwgMi4wMTMzOTcyMTA1NTc3NDUgLTYuNzE2NDI3NzUyOTMzNzYzLCAyLjM5NDE0MTAwMzI3OTY1OTUgLTYuNTc3ODQ4MzQ1NTAxMzY2NSBDMi43NzQ4ODQ3OTYwMDE1NzQgLTYuNDM5MjY4OTM4MDY4OTcsIDMuMTQ5MTA0NjIyNTc4OTYzIC02LjI2NDc2NzM2NzEwMjUsIDMuNDk5OTk5OTk5OTk5OTc5IC02LjA2MjE3NzgyNjQ5MTA4MyBDMy44NTA4OTUzNzc0MjA5OTUzIC01Ljg1OTU4ODI4NTg3OTY2NSwgNC4xODkxMjgwODQxNjY5NDcgLTUuNjIyNzU1MTk0OTQ3MDc3LCA0LjQ5OTUxMzI2NzgwNTc1NiAtNS4zNjIzMTExMDE4MzI4NjIgQzQuODA5ODk4NDUxNDQ0NTY0IC01LjEwMTg2NzAwODcxODY0NzUsIDUuMTAxODY3MDA4NzE4NjEzIC00LjgwOTg5ODQ1MTQ0NDYwMiwgNS4zNjIzMTExMDE4MzI4MjkgLTQuNDk5NTEzMjY3ODA1Nzk2IEM1LjYyMjc1NTE5NDk0NzA0NiAtNC4xODkxMjgwODQxNjY5ODksIDUuODU5NTg4Mjg1ODc5NjM3IC0zLjg1MDg5NTM3NzQyMTAzOTMsIDYuMDYyMTc3ODI2NDkxMDU2IC0zLjUwMDAwMDAwMDAwMDAyNSBDNi4yNjQ3NjczNjcxMDI0NzU1IC0zLjE0OTEwNDYyMjU3OTAxMDUsIDYuNDM5MjY4OTM4MDY4OTQ5IC0yLjc3NDg4NDc5NjAwMTYyMywgNi41Nzc4NDgzNDU1MDEzNDggLTIuMzk0MTQxMDAzMjc5NzA5MiBDNi43MTY0Mjc3NTI5MzM3NDcgLTIuMDEzMzk3MjEwNTU3Nzk1NSwgNi44MjMyOTU2NjIwMDIzNDIgLTEuNjE0NTYwNzQ0MjE1MTU2MiwgNi44OTM2NTQyNzEwODU0NTEgLTEuMjE1NTM3MjQzNjY4NTQzNCBDNi45NjQwMTI4ODAxNjg1NiAtMC44MTY1MTM3NDMxMjE5MzA3LCA2Ljk4MjI3NTcxMTg0NzU3NSAtMC4yMDI1ODk1NDA2MTE0NTY3LCA3IC0zLjI4MDA3NTAyMDgzMTA2NzVlLTE0IEM3LjAxNzcyNDI4ODE1MjQyNSAwLjIwMjU4OTU0MDYxMTM5MTEsIDcuMDE3NzI0Mjg4MTUyNDI0IC0wLjIwMjU4OTU0MDYxMTQyNDIsIDcgMCI+PC9wYXRoPjxnPjxwYXRoIHN0eWxlPSIiIGZpbGw9IiMwMDAiIHN0cm9rZS13aWR0aD0iMCIgc3Ryb2tlPSJub25lIiBkPSJNMi41IDAgQzIuNSAwLjE0NDcwNjgxNDcyMjQ0MTkzLCAyLjQ4NzE0NzQ1NzIwMzA1OCAwLjI5MTYxMjA1MTExNDk2Mzg2LCAyLjQ2MjAxOTM4MjUzMDUyIDAuNDM0MTIwNDQ0MTY3MzI1OCBDMi40MzY4OTEzMDc4NTc5ODIgMC41NzY2Mjg4MzcyMTk2ODc3LCAyLjM5ODcyNDE5NzQ3NjM0MTYgMC43MTkwNzA0MzIzNDIwNTk1LCAyLjM0OTIzMTU1MTk2NDc3MTMgMC44NTUwNTAzNTgzMTQxNzE4IEMyLjI5OTczODkwNjQ1MzIwMSAwLjk5MTAzMDI4NDI4NjI4NCwgMi4yMzc0MTY5MTY4MjIzMTc3IDEuMTI0NjgwMjIyMzQ5NjM3LCAyLjE2NTA2MzUwOTQ2MTA5NyAxLjI0OTk5OTk5OTk5OTk5OTggQzIuMDkyNzEwMTAyMDk5ODc2IDEuMzc1MzE5Nzc3NjUwMzYyNSwgMi4wMDgxMjY4NTUzMzgyMzY1IDEuNDk2MTE3MTcyOTE2Nzc0LCAxLjkxNTExMTEwNzc5NzQ0NSAxLjYwNjk2OTAyNDIxNjM0ODEgQzEuODIyMDk1MzYwMjU2NjUzNiAxLjcxNzgyMDg3NTUxNTkyMjMsIDEuNzE3ODIwODc1NTE1OTIyNiAxLjgyMjA5NTM2MDI1NjY1MzYsIDEuNjA2OTY5MDI0MjE2MzQ4NCAxLjkxNTExMTEwNzc5NzQ0NSBDMS40OTYxMTcxNzI5MTY3NzQyIDIuMDA4MTI2ODU1MzM4MjM2NSwgMS4zNzUzMTk3Nzc2NTAzNjMgMi4wOTI3MTAxMDIwOTk4NzU1LCAxLjI1MDAwMDAwMDAwMDAwMDIgMi4xNjUwNjM1MDk0NjEwOTY0IEMxLjEyNDY4MDIyMjM0OTYzNzUgMi4yMzc0MTY5MTY4MjIzMTcyLCAwLjk5MTAzMDI4NDI4NjI4NDUgMi4yOTk3Mzg5MDY0NTMyLCAwLjg1NTA1MDM1ODMxNDE3MjEgMi4zNDkyMzE1NTE5NjQ3NzEgQzAuNzE5MDcwNDMyMzQyMDU5NyAyLjM5ODcyNDE5NzQ3NjM0MTYsIDAuNTc2NjI4ODM3MjE5Njg4IDIuNDM2ODkxMzA3ODU3OTgyLCAwLjQzNDEyMDQ0NDE2NzMyNjA0IDIuNDYyMDE5MzgyNTMwNTIgQzAuMjkxNjEyMDUxMTE0OTY0IDIuNDg3MTQ3NDU3MjAzMDU4LCAwLjE0NDcwNjgxNDcyMjQ0MjEyIDIuNSwgMS41MzA4MDg0OTg5MzQxOTE2ZS0xNiAyLjUgQy0wLjE0NDcwNjgxNDcyMjQ0MTggMi41LCAtMC4yOTE2MTIwNTExMTQ5NjM4IDIuNDg3MTQ3NDU3MjAzMDU4LCAtMC40MzQxMjA0NDQxNjczMjU3NiAyLjQ2MjAxOTM4MjUzMDUyIEMtMC41NzY2Mjg4MzcyMTk2ODc3IDIuNDM2ODkxMzA3ODU3OTgyLCAtMC43MTkwNzA0MzIzNDIwNTk1IDIuMzk4NzI0MTk3NDc2MzQxNiwgLTAuODU1MDUwMzU4MzE0MTcxOCAyLjM0OTIzMTU1MTk2NDc3MTMgQy0wLjk5MTAzMDI4NDI4NjI4NCAyLjI5OTczODkwNjQ1MzIwMSwgLTEuMTI0NjgwMjIyMzQ5NjM3IDIuMjM3NDE2OTE2ODIyMzE3NywgLTEuMjQ5OTk5OTk5OTk5OTk5NiAyLjE2NTA2MzUwOTQ2MTA5NyBDLTEuMzc1MzE5Nzc3NjUwMzYyIDIuMDkyNzEwMTAyMDk5ODc2LCAtMS40OTYxMTcxNzI5MTY3NzMzIDIuMDA4MTI2ODU1MzM4MjM3LCAtMS42MDY5NjkwMjQyMTYzNDc1IDEuOTE1MTExMTA3Nzk3NDQ1OSBDLTEuNzE3ODIwODc1NTE1OTIxNyAxLjgyMjA5NTM2MDI1NjY1NDgsIC0xLjgyMjA5NTM2MDI1NjY1MyAxLjcxNzgyMDg3NTUxNTkyMzQsIC0xLjkxNTExMTEwNzc5NzQ0NDMgMS42MDY5NjkwMjQyMTYzNDk1IEMtMi4wMDgxMjY4NTUzMzgyMzU3IDEuNDk2MTE3MTcyOTE2Nzc1NSwgLTIuMDkyNzEwMTAyMDk5ODc0NiAxLjM3NTMxOTc3NzY1MDM2NDUsIC0yLjE2NTA2MzUwOTQ2MTA5NTUgMS4yNTAwMDAwMDAwMDAwMDIgQy0yLjIzNzQxNjkxNjgyMjMxNjQgMS4xMjQ2ODAyMjIzNDk2Mzk1LCAtMi4yOTk3Mzg5MDY0NTMxOTkyIDAuOTkxMDMwMjg0Mjg2Mjg2NSwgLTIuMzQ5MjMxNTUxOTY0NzcgMC44NTUwNTAzNTgzMTQxNzQzIEMtMi4zOTg3MjQxOTc0NzYzNDA3IDAuNzE5MDcwNDMyMzQyMDYyMSwgLTIuNDM2ODkxMzA3ODU3OTgxIDAuNTc2NjI4ODM3MjE5NjkwNywgLTIuNDYyMDE5MzgyNTMwNTE5NCAwLjQzNDEyMDQ0NDE2NzMyOSBDLTIuNDg3MTQ3NDU3MjAzMDU4IDAuMjkxNjEyMDUxMTE0OTY3MjQsIC0yLjUgMC4xNDQ3MDY4MTQ3MjI0NDU0NSwgLTIuNSAzLjYzNjgzMDc3MzY2MjMwOGUtMTUgQy0yLjUgLTAuMTQ0NzA2ODE0NzIyNDM4MTgsIC0yLjQ4NzE0NzQ1NzIwMzA1ODcgLTAuMjkxNjEyMDUxMTE0OTU5OSwgLTIuNDYyMDE5MzgyNTMwNTIwOCAtMC40MzQxMjA0NDQxNjczMjE4IEMtMi40MzY4OTEzMDc4NTc5ODMgLTAuNTc2NjI4ODM3MjE5NjgzNywgLTIuMzk4NzI0MTk3NDc2MzQzIC0wLjcxOTA3MDQzMjM0MjA1NTMsIC0yLjM0OTIzMTU1MTk2NDc3MjYgLTAuODU1MDUwMzU4MzE0MTY3NSBDLTIuMjk5NzM4OTA2NDUzMjAyMyAtMC45OTEwMzAyODQyODYyNzk4LCAtMi4yMzc0MTY5MTY4MjIzMiAtMS4xMjQ2ODAyMjIzNDk2MzI4LCAtMi4xNjUwNjM1MDk0NjEwOTkgLTEuMjQ5OTk5OTk5OTk5OTk1NiBDLTIuMDkyNzEwMTAyMDk5ODc4IC0xLjM3NTMxOTc3NzY1MDM1ODMsIC0yLjAwODEyNjg1NTMzODI0IC0xLjQ5NjExNzE3MjkxNjc2OTUsIC0xLjkxNTExMTEwNzc5NzQ0ODggLTEuNjA2OTY5MDI0MjE2MzQ0IEMtMS44MjIwOTUzNjAyNTY2NTc2IC0xLjcxNzgyMDg3NTUxNTkxODMsIC0xLjcxNzgyMDg3NTUxNTkyNjMgLTEuODIyMDk1MzYwMjU2NjUsIC0xLjYwNjk2OTAyNDIxNjM1MjMgLTEuOTE1MTExMTA3Nzk3NDQxNiBDLTEuNDk2MTE3MTcyOTE2Nzc4NCAtMi4wMDgxMjY4NTUzMzgyMzM0LCAtMS4zNzUzMTk3Nzc2NTAzNjcyIC0yLjA5MjcxMDEwMjA5OTg3MjQsIC0xLjI1MDAwMDAwMDAwMDAwNDcgLTIuMTY1MDYzNTA5NDYxMDkzNyBDLTEuMTI0NjgwMjIyMzQ5NjQyMiAtMi4yMzc0MTY5MTY4MjIzMTUsIC0wLjk5MTAzMDI4NDI4NjI4OTcgLTIuMjk5NzM4OTA2NDUzMTk4LCAtMC44NTUwNTAzNTgzMTQxNzc2IC0yLjM0OTIzMTU1MTk2NDc2ODYgQy0wLjcxOTA3MDQzMjM0MjA2NTYgLTIuMzk4NzI0MTk3NDc2MzM5NCwgLTAuNTc2NjI4ODM3MjE5Njk0MiAtMi40MzY4OTEzMDc4NTc5ODA2LCAtMC40MzQxMjA0NDQxNjczMzIzNiAtMi40NjIwMTkzODI1MzA1MTkgQy0wLjI5MTYxMjA1MTExNDk3MDU3IC0yLjQ4NzE0NzQ1NzIwMzA1NzQsIC0wLjE0NDcwNjgxNDcyMjQ0ODkgLTIuNDk5OTk5OTk5OTk5OTk5NiwgLTcuMTIwNTgwNjk3NDMxMTk4ZS0xNSAtMi41IEMwLjE0NDcwNjgxNDcyMjQzNDYzIC0yLjUwMDAwMDAwMDAwMDAwMDQsIDAuMjkxNjEyMDUxMTE0OTU2NDcgLTIuNDg3MTQ3NDU3MjAzMDU5LCAwLjQzNDEyMDQ0NDE2NzMxODMgLTIuNDYyMDE5MzgyNTMwNTIxNyBDMC41NzY2Mjg4MzcyMTk2ODAyIC0yLjQzNjg5MTMwNzg1Nzk4NCwgMC43MTkwNzA0MzIzNDIwNTE4IC0yLjM5ODcyNDE5NzQ3NjM0NDIsIDAuODU1MDUwMzU4MzE0MTY0MiAtMi4zNDkyMzE1NTE5NjQ3NzQgQzAuOTkxMDMwMjg0Mjg2Mjc2NiAtMi4yOTk3Mzg5MDY0NTMyMDM3LCAxLjEyNDY4MDIyMjM0OTYyOTUgLTIuMjM3NDE2OTE2ODIyMzIxMiwgMS4yNDk5OTk5OTk5OTk5OTI1IC0yLjE2NTA2MzUwOTQ2MTEwMSBDMS4zNzUzMTk3Nzc2NTAzNTU0IC0yLjA5MjcxMDEwMjA5OTg4MDQsIDEuNDk2MTE3MTcyOTE2NzY2OCAtMi4wMDgxMjY4NTUzMzgyNDIsIDEuNjA2OTY5MDI0MjE2MzQxMiAtMS45MTUxMTExMDc3OTc0NTEgQzEuNzE3ODIwODc1NTE1OTE1NyAtMS44MjIwOTUzNjAyNTY2NiwgMS44MjIwOTUzNjAyNTY2NDcyIC0xLjcxNzgyMDg3NTUxNTkyOTQsIDEuOTE1MTExMTA3Nzk3NDM5IC0xLjYwNjk2OTAyNDIxNjM1NTcgQzIuMDA4MTI2ODU1MzM4MjMwOCAtMS40OTYxMTcxNzI5MTY3ODIsIDIuMDkyNzEwMTAyMDk5ODcgLTEuMzc1MzE5Nzc3NjUwMzcxMiwgMi4xNjUwNjM1MDk0NjEwOTE1IC0xLjI1MDAwMDAwMDAwMDAwODkgQzIuMjM3NDE2OTE2ODIyMzEzIC0xLjEyNDY4MDIyMjM0OTY0NjYsIDIuMjk5NzM4OTA2NDUzMTk2IC0wLjk5MTAzMDI4NDI4NjI5MzksIDIuMzQ5MjMxNTUxOTY0NzY3MyAtMC44NTUwNTAzNTgzMTQxODIgQzIuMzk4NzI0MTk3NDc2MzM4NSAtMC43MTkwNzA0MzIzNDIwNywgMi40MzY4OTEzMDc4NTc5NzkyIC0wLjU3NjYyODgzNzIxOTY5ODYsIDIuNDYyMDE5MzgyNTMwNTE4IC0wLjQzNDEyMDQ0NDE2NzMzNjkgQzIuNDg3MTQ3NDU3MjAzMDU3IC0wLjI5MTYxMjA1MTExNDk3NTIzLCAyLjQ5MzY2OTg5NzA4ODQxOTcgLTAuMDcyMzUzNDA3MzYxMjM0NTQsIDIuNSAtMS4xNzE0NTUzNjQ1ODI1MjQxZS0xNCBDMi41MDYzMzAxMDI5MTE1ODAzIDAuMDcyMzUzNDA3MzYxMjExMTEsIDIuNTA2MzMwMTAyOTExNTggLTAuMDcyMzUzNDA3MzYxMjIyOTIsIDIuNSAwIj48L3BhdGg+PHBhdGggc3R5bGU9IiIgZmlsbD0ibm9uZSIgc3Ryb2tlLXdpZHRoPSIyIiBzdHJva2U9IiMwMDAiIGQ9Ik0yLjUgMCBDMi41IDAuMTQ0NzA2ODE0NzIyNDQxOTMsIDIuNDg3MTQ3NDU3MjAzMDU4IDAuMjkxNjEyMDUxMTE0OTYzODYsIDIuNDYyMDE5MzgyNTMwNTIgMC40MzQxMjA0NDQxNjczMjU4IEMyLjQzNjg5MTMwNzg1Nzk4MiAwLjU3NjYyODgzNzIxOTY4NzcsIDIuMzk4NzI0MTk3NDc2MzQxNiAwLjcxOTA3MDQzMjM0MjA1OTUsIDIuMzQ5MjMxNTUxOTY0NzcxMyAwLjg1NTA1MDM1ODMxNDE3MTggQzIuMjk5NzM4OTA2NDUzMjAxIDAuOTkxMDMwMjg0Mjg2Mjg0LCAyLjIzNzQxNjkxNjgyMjMxNzcgMS4xMjQ2ODAyMjIzNDk2MzcsIDIuMTY1MDYzNTA5NDYxMDk3IDEuMjQ5OTk5OTk5OTk5OTk5OCBDMi4wOTI3MTAxMDIwOTk4NzYgMS4zNzUzMTk3Nzc2NTAzNjI1LCAyLjAwODEyNjg1NTMzODIzNjUgMS40OTYxMTcxNzI5MTY3NzQsIDEuOTE1MTExMTA3Nzk3NDQ1IDEuNjA2OTY5MDI0MjE2MzQ4MSBDMS44MjIwOTUzNjAyNTY2NTM2IDEuNzE3ODIwODc1NTE1OTIyMywgMS43MTc4MjA4NzU1MTU5MjI2IDEuODIyMDk1MzYwMjU2NjUzNiwgMS42MDY5NjkwMjQyMTYzNDg0IDEuOTE1MTExMTA3Nzk3NDQ1IEMxLjQ5NjExNzE3MjkxNjc3NDIgMi4wMDgxMjY4NTUzMzgyMzY1LCAxLjM3NTMxOTc3NzY1MDM2MyAyLjA5MjcxMDEwMjA5OTg3NTUsIDEuMjUwMDAwMDAwMDAwMDAwMiAyLjE2NTA2MzUwOTQ2MTA5NjQgQzEuMTI0NjgwMjIyMzQ5NjM3NSAyLjIzNzQxNjkxNjgyMjMxNzIsIDAuOTkxMDMwMjg0Mjg2Mjg0NSAyLjI5OTczODkwNjQ1MzIsIDAuODU1MDUwMzU4MzE0MTcyMSAyLjM0OTIzMTU1MTk2NDc3MSBDMC43MTkwNzA0MzIzNDIwNTk3IDIuMzk4NzI0MTk3NDc2MzQxNiwgMC41NzY2Mjg4MzcyMTk2ODggMi40MzY4OTEzMDc4NTc5ODIsIDAuNDM0MTIwNDQ0MTY3MzI2MDQgMi40NjIwMTkzODI1MzA1MiBDMC4yOTE2MTIwNTExMTQ5NjQgMi40ODcxNDc0NTcyMDMwNTgsIDAuMTQ0NzA2ODE0NzIyNDQyMTIgMi41LCAxLjUzMDgwODQ5ODkzNDE5MTZlLTE2IDIuNSBDLTAuMTQ0NzA2ODE0NzIyNDQxOCAyLjUsIC0wLjI5MTYxMjA1MTExNDk2MzggMi40ODcxNDc0NTcyMDMwNTgsIC0wLjQzNDEyMDQ0NDE2NzMyNTc2IDIuNDYyMDE5MzgyNTMwNTIgQy0wLjU3NjYyODgzNzIxOTY4NzcgMi40MzY4OTEzMDc4NTc5ODIsIC0wLjcxOTA3MDQzMjM0MjA1OTUgMi4zOTg3MjQxOTc0NzYzNDE2LCAtMC44NTUwNTAzNTgzMTQxNzE4IDIuMzQ5MjMxNTUxOTY0NzcxMyBDLTAuOTkxMDMwMjg0Mjg2Mjg0IDIuMjk5NzM4OTA2NDUzMjAxLCAtMS4xMjQ2ODAyMjIzNDk2MzcgMi4yMzc0MTY5MTY4MjIzMTc3LCAtMS4yNDk5OTk5OTk5OTk5OTk2IDIuMTY1MDYzNTA5NDYxMDk3IEMtMS4zNzUzMTk3Nzc2NTAzNjIgMi4wOTI3MTAxMDIwOTk4NzYsIC0xLjQ5NjExNzE3MjkxNjc3MzMgMi4wMDgxMjY4NTUzMzgyMzcsIC0xLjYwNjk2OTAyNDIxNjM0NzUgMS45MTUxMTExMDc3OTc0NDU5IEMtMS43MTc4MjA4NzU1MTU5MjE3IDEuODIyMDk1MzYwMjU2NjU0OCwgLTEuODIyMDk1MzYwMjU2NjUzIDEuNzE3ODIwODc1NTE1OTIzNCwgLTEuOTE1MTExMTA3Nzk3NDQ0MyAxLjYwNjk2OTAyNDIxNjM0OTUgQy0yLjAwODEyNjg1NTMzODIzNTcgMS40OTYxMTcxNzI5MTY3NzU1LCAtMi4wOTI3MTAxMDIwOTk4NzQ2IDEuMzc1MzE5Nzc3NjUwMzY0NSwgLTIuMTY1MDYzNTA5NDYxMDk1NSAxLjI1MDAwMDAwMDAwMDAwMiBDLTIuMjM3NDE2OTE2ODIyMzE2NCAxLjEyNDY4MDIyMjM0OTYzOTUsIC0yLjI5OTczODkwNjQ1MzE5OTIgMC45OTEwMzAyODQyODYyODY1LCAtMi4zNDkyMzE1NTE5NjQ3NyAwLjg1NTA1MDM1ODMxNDE3NDMgQy0yLjM5ODcyNDE5NzQ3NjM0MDcgMC43MTkwNzA0MzIzNDIwNjIxLCAtMi40MzY4OTEzMDc4NTc5ODEgMC41NzY2Mjg4MzcyMTk2OTA3LCAtMi40NjIwMTkzODI1MzA1MTk0IDAuNDM0MTIwNDQ0MTY3MzI5IEMtMi40ODcxNDc0NTcyMDMwNTggMC4yOTE2MTIwNTExMTQ5NjcyNCwgLTIuNSAwLjE0NDcwNjgxNDcyMjQ0NTQ1LCAtMi41IDMuNjM2ODMwNzczNjYyMzA4ZS0xNSBDLTIuNSAtMC4xNDQ3MDY4MTQ3MjI0MzgxOCwgLTIuNDg3MTQ3NDU3MjAzMDU4NyAtMC4yOTE2MTIwNTExMTQ5NTk5LCAtMi40NjIwMTkzODI1MzA1MjA4IC0wLjQzNDEyMDQ0NDE2NzMyMTggQy0yLjQzNjg5MTMwNzg1Nzk4MyAtMC41NzY2Mjg4MzcyMTk2ODM3LCAtMi4zOTg3MjQxOTc0NzYzNDMgLTAuNzE5MDcwNDMyMzQyMDU1MywgLTIuMzQ5MjMxNTUxOTY0NzcyNiAtMC44NTUwNTAzNTgzMTQxNjc1IEMtMi4yOTk3Mzg5MDY0NTMyMDIzIC0wLjk5MTAzMDI4NDI4NjI3OTgsIC0yLjIzNzQxNjkxNjgyMjMyIC0xLjEyNDY4MDIyMjM0OTYzMjgsIC0yLjE2NTA2MzUwOTQ2MTA5OSAtMS4yNDk5OTk5OTk5OTk5OTU2IEMtMi4wOTI3MTAxMDIwOTk4NzggLTEuMzc1MzE5Nzc3NjUwMzU4MywgLTIuMDA4MTI2ODU1MzM4MjQgLTEuNDk2MTE3MTcyOTE2NzY5NSwgLTEuOTE1MTExMTA3Nzk3NDQ4OCAtMS42MDY5NjkwMjQyMTYzNDQgQy0xLjgyMjA5NTM2MDI1NjY1NzYgLTEuNzE3ODIwODc1NTE1OTE4MywgLTEuNzE3ODIwODc1NTE1OTI2MyAtMS44MjIwOTUzNjAyNTY2NSwgLTEuNjA2OTY5MDI0MjE2MzUyMyAtMS45MTUxMTExMDc3OTc0NDE2IEMtMS40OTYxMTcxNzI5MTY3Nzg0IC0yLjAwODEyNjg1NTMzODIzMzQsIC0xLjM3NTMxOTc3NzY1MDM2NzIgLTIuMDkyNzEwMTAyMDk5ODcyNCwgLTEuMjUwMDAwMDAwMDAwMDA0NyAtMi4xNjUwNjM1MDk0NjEwOTM3IEMtMS4xMjQ2ODAyMjIzNDk2NDIyIC0yLjIzNzQxNjkxNjgyMjMxNSwgLTAuOTkxMDMwMjg0Mjg2Mjg5NyAtMi4yOTk3Mzg5MDY0NTMxOTgsIC0wLjg1NTA1MDM1ODMxNDE3NzYgLTIuMzQ5MjMxNTUxOTY0NzY4NiBDLTAuNzE5MDcwNDMyMzQyMDY1NiAtMi4zOTg3MjQxOTc0NzYzMzk0LCAtMC41NzY2Mjg4MzcyMTk2OTQyIC0yLjQzNjg5MTMwNzg1Nzk4MDYsIC0wLjQzNDEyMDQ0NDE2NzMzMjM2IC0yLjQ2MjAxOTM4MjUzMDUxOSBDLTAuMjkxNjEyMDUxMTE0OTcwNTcgLTIuNDg3MTQ3NDU3MjAzMDU3NCwgLTAuMTQ0NzA2ODE0NzIyNDQ4OSAtMi40OTk5OTk5OTk5OTk5OTk2LCAtNy4xMjA1ODA2OTc0MzExOThlLTE1IC0yLjUgQzAuMTQ0NzA2ODE0NzIyNDM0NjMgLTIuNTAwMDAwMDAwMDAwMDAwNCwgMC4yOTE2MTIwNTExMTQ5NTY0NyAtMi40ODcxNDc0NTcyMDMwNTksIDAuNDM0MTIwNDQ0MTY3MzE4MyAtMi40NjIwMTkzODI1MzA1MjE3IEMwLjU3NjYyODgzNzIxOTY4MDIgLTIuNDM2ODkxMzA3ODU3OTg0LCAwLjcxOTA3MDQzMjM0MjA1MTggLTIuMzk4NzI0MTk3NDc2MzQ0MiwgMC44NTUwNTAzNTgzMTQxNjQyIC0yLjM0OTIzMTU1MTk2NDc3NCBDMC45OTEwMzAyODQyODYyNzY2IC0yLjI5OTczODkwNjQ1MzIwMzcsIDEuMTI0NjgwMjIyMzQ5NjI5NSAtMi4yMzc0MTY5MTY4MjIzMjEyLCAxLjI0OTk5OTk5OTk5OTk5MjUgLTIuMTY1MDYzNTA5NDYxMTAxIEMxLjM3NTMxOTc3NzY1MDM1NTQgLTIuMDkyNzEwMTAyMDk5ODgwNCwgMS40OTYxMTcxNzI5MTY3NjY4IC0yLjAwODEyNjg1NTMzODI0MiwgMS42MDY5NjkwMjQyMTYzNDEyIC0xLjkxNTExMTEwNzc5NzQ1MSBDMS43MTc4MjA4NzU1MTU5MTU3IC0xLjgyMjA5NTM2MDI1NjY2LCAxLjgyMjA5NTM2MDI1NjY0NzIgLTEuNzE3ODIwODc1NTE1OTI5NCwgMS45MTUxMTExMDc3OTc0MzkgLTEuNjA2OTY5MDI0MjE2MzU1NyBDMi4wMDgxMjY4NTUzMzgyMzA4IC0xLjQ5NjExNzE3MjkxNjc4MiwgMi4wOTI3MTAxMDIwOTk4NyAtMS4zNzUzMTk3Nzc2NTAzNzEyLCAyLjE2NTA2MzUwOTQ2MTA5MTUgLTEuMjUwMDAwMDAwMDAwMDA4OSBDMi4yMzc0MTY5MTY4MjIzMTMgLTEuMTI0NjgwMjIyMzQ5NjQ2NiwgMi4yOTk3Mzg5MDY0NTMxOTYgLTAuOTkxMDMwMjg0Mjg2MjkzOSwgMi4zNDkyMzE1NTE5NjQ3NjczIC0wLjg1NTA1MDM1ODMxNDE4MiBDMi4zOTg3MjQxOTc0NzYzMzg1IC0wLjcxOTA3MDQzMjM0MjA3LCAyLjQzNjg5MTMwNzg1Nzk3OTIgLTAuNTc2NjI4ODM3MjE5Njk4NiwgMi40NjIwMTkzODI1MzA1MTggLTAuNDM0MTIwNDQ0MTY3MzM2OSBDMi40ODcxNDc0NTcyMDMwNTcgLTAuMjkxNjEyMDUxMTE0OTc1MjMsIDIuNDkzNjY5ODk3MDg4NDE5NyAtMC4wNzIzNTM0MDczNjEyMzQ1NCwgMi41IC0xLjE3MTQ1NTM2NDU4MjUyNDFlLTE0IEMyLjUwNjMzMDEwMjkxMTU4MDMgMC4wNzIzNTM0MDczNjEyMTExMSwgMi41MDYzMzAxMDI5MTE1OCAtMC4wNzIzNTM0MDczNjEyMjI5MiwgMi41IDAiPjwvcGF0aD48L2c+PC9nPjwvZz48L2c+PC9nPjwvZz48L3N2Zz4=;" vertex="1" parent="1">
            <mxGeometry x="190" y="-140" width="445.755859375" height="859" as="geometry" />
          </mxCell>
        </UserObject>
      </root>
    </mxGraphModel>
  </diagram>
</mxfile>
